# SSTK version 0.8.0
# 59
mtllib original-59.mtl
o W-POR-1650-1_1_4_3/mesh63/mesh63-geometry#mesh63-geometry
v 0.280424 -0.167366 -0.016381
v 0.280424 -0.191436 -0.028911
v 0.280424 -0.178576 -0.024231
v 0.280424 -0.179652 -0.022164
v 0.233824 -0.178576 -0.024231
v 0.233824 -0.167366 -0.016381
v 0.280424 -0.168940 -0.014663
v 0.280424 -0.191941 -0.026637
v 0.233824 -0.191436 -0.028911
v 0.233824 -0.158569 -0.005897
v 0.280424 -0.158569 -0.005897
v 0.233824 -0.179652 -0.022164
v 0.280424 -0.205070 -0.030104
v 0.233824 -0.191941 -0.026637
v 0.233824 -0.168940 -0.014663
v 0.280424 -0.160534 -0.004645
v 0.280424 -0.204968 -0.027776
v 0.233824 -0.204968 -0.027776
v 0.233824 -0.205070 -0.030104
v 0.233824 -0.152785 0.006506
v 0.233824 -0.160534 -0.004645
v 0.280424 -0.152785 0.006506
v 0.280424 -0.218547 -0.027728
v 0.280424 -0.155007 0.007207
v 0.233824 -0.217847 -0.025506
v 0.280424 -0.217847 -0.025506
v 0.233824 -0.218547 -0.027728
v 0.280424 -0.150409 0.019984
v 0.233824 -0.155007 0.007207
v 0.280424 -0.230951 -0.021944
v 0.233824 -0.230951 -0.021944
v 0.233824 -0.150409 0.019984
v 0.280424 -0.152736 0.020085
v 0.280424 -0.229699 -0.019979
v 0.280424 -0.151601 0.033617
v 0.233824 -0.152736 0.020085
v 0.233824 -0.229699 -0.019979
v 0.280424 -0.241434 -0.013147
v 0.233824 -0.241434 -0.013147
v 0.233824 -0.151601 0.033617
v 0.280424 -0.153876 0.033113
v 0.233824 -0.153876 0.033113
v 0.280424 -0.239717 -0.011573
v 0.280424 -0.156282 0.046477
v 0.233824 -0.239717 -0.011573
v 0.280424 -0.249284 -0.001937
v 0.233824 -0.249284 -0.001937
v 0.233824 -0.156282 0.046477
v 0.280424 -0.158349 0.045401
v 0.233824 -0.158349 0.045401
v 0.280424 -0.247217 -0.000861
v 0.280424 -0.164132 0.057688
v 0.280424 -0.165850 0.056114
v 0.233824 -0.247217 -0.000861
v 0.280424 -0.253965 0.010924
v 0.233824 -0.253965 0.010924
v 0.233824 -0.164132 0.057688
v 0.233824 -0.165850 0.056114
v 0.280424 -0.251690 0.011428
v 0.280424 -0.174616 0.066484
v 0.280424 -0.175867 0.064519
v 0.233824 -0.175867 0.064519
v 0.233824 -0.251690 0.011428
v 0.280424 -0.252830 0.024455
v 0.233824 -0.255158 0.024557
v 0.233824 -0.174616 0.066484
v 0.233824 -0.252830 0.024455
v 0.280424 -0.255158 0.024557
v 0.280424 -0.187019 0.072268
v 0.280424 -0.187719 0.070046
v 0.233824 -0.187719 0.070046
v 0.280424 -0.250559 0.037334
v 0.233824 -0.252781 0.038035
v 0.233824 -0.250559 0.037334
v 0.233824 -0.187019 0.072268
v 0.280424 -0.252781 0.038035
v 0.233824 -0.200496 0.074645
v 0.280424 -0.200598 0.072317
v 0.280424 -0.245032 0.049186
v 0.280424 -0.246997 0.050438
v 0.233824 -0.245032 0.049186
v 0.233824 -0.200598 0.072317
v 0.280424 -0.200496 0.074645
v 0.233824 -0.246997 0.050438
v 0.233824 -0.214130 0.073452
v 0.233824 -0.213626 0.071177
v 0.280424 -0.213626 0.071177
v 0.233824 -0.236626 0.059204
v 0.280424 -0.236626 0.059204
v 0.280424 -0.238200 0.060922
v 0.280424 -0.214130 0.073452
v 0.233824 -0.238200 0.060922
v 0.233824 -0.226990 0.068771
v 0.233824 -0.225914 0.066704
v 0.280424 -0.225914 0.066704
v 0.280424 -0.226990 0.068771
vn 1 0 0
vn 0 0.2164399834189664 -0.9762959252079247
vn 0 0.4617488492108587 -0.8870107103369427
vn 0 0.675590262524631 -0.7372772864953187
vn 0 0.8433911396314269 -0.5373000889551414
vn 0 -0.675590262524631 0.7372772864953187
vn 0 -0.4617488492108587 0.8870107103369427
vn 0 -0.2164399834189664 0.9762959252079247
vn 0 -0.0436190103929938 -0.9990482380407545
vn -1 0 0
vn 0 0.0436190103929938 0.9990482380407545
vn 0 0.9537168977019469 -0.3007059677455279
vn 0 -0.8433911396314269 0.5373000889551414
vn 0 -0.3007059677455279 -0.9537168977019469
vn 0 0.3007059677455279 0.9537168977019469
vn 0 0.9990482380407545 -0.0436190103929938
vn 0 -0.9537168977019469 0.3007059677455279
vn 0 -0.5373000889551414 -0.8433911396314269
vn 0 0.5373000889551414 0.8433911396314269
vn 0 0.9762959252079247 0.2164399834189664
vn 0 -0.9990482380407545 0.0436190103929938
vn 0 -0.7372772864953187 -0.675590262524631
vn 0 -0.9762959252079247 -0.2164399834189664
vn 0 0.7372772864953187 0.675590262524631
vn 0 0.8870107103369427 0.4617488492108587
vn 0 -0.8870107103369427 -0.4617488492108587
usemtl material_0_0
f 1//1 2//1 3//1
f 2//1 1//1 4//1
f 2//2 5//3 3//3
f 3//3 6//4 1//4
f 4//1 1//1 7//1
f 8//1 2//1 4//1
f 5//3 2//2 9//2
f 6//4 3//3 5//3
f 10//5 1//4 6//4
f 7//1 1//1 11//1
f 7//6 12//7 4//7
f 2//1 8//1 13//1
f 4//7 14//8 8//8
f 13//9 9//2 2//2
f 9//10 6//10 5//10
f 1//4 10//5 11//5
f 6//10 15//10 10//10
f 7//1 11//1 16//1
f 12//7 7//6 15//6
f 14//8 4//7 12//7
f 13//1 8//1 17//1
f 18//11 8//8 14//8
f 9//2 13//9 19//9
f 6//10 9//10 12//10
f 20//12 11//5 10//5
f 15//10 6//10 12//10
f 10//10 15//10 21//10
f 16//1 11//1 22//1
f 16//13 15//6 7//6
f 12//10 9//10 14//10
f 8//8 18//11 17//11
f 13//1 17//1 23//1
f 14//10 19//10 18//10
f 23//14 19//9 13//9
f 14//10 9//10 19//10
f 11//5 20//12 22//12
f 10//10 21//10 20//10
f 15//6 16//13 21//13
f 16//1 22//1 24//1
f 25//15 17//11 18//11
f 23//1 17//1 26//1
f 18//10 19//10 27//10
f 19//9 23//14 27//14
f 20//12 28//16 22//12
f 20//10 21//10 29//10
f 24//17 21//13 16//13
f 24//1 22//1 28//1
f 17//11 25//15 26//15
f 18//10 27//10 25//10
f 23//1 26//1 30//1
f 23//14 31//18 27//14
f 28//16 20//12 32//16
f 21//13 24//17 29//17
f 20//10 29//10 32//10
f 24//1 28//1 33//1
f 25//15 34//19 26//15
f 25//10 27//10 31//10
f 30//1 26//1 34//1
f 31//18 23//14 30//18
f 32//16 35//20 28//16
f 24//17 36//21 29//17
f 32//10 29//10 36//10
f 33//1 28//1 35//1
f 36//21 24//17 33//21
f 34//19 25//15 37//19
f 25//10 31//10 37//10
f 30//1 34//1 38//1
f 30//18 39//22 31//18
f 35//20 32//16 40//20
f 32//10 36//10 40//10
f 33//1 35//1 41//1
f 33//21 42//23 36//21
f 37//19 43//24 34//19
f 37//10 31//10 39//10
f 38//1 34//1 43//1
f 39//22 30//18 38//22
f 40//20 44//25 35//20
f 40//10 36//10 42//10
f 41//1 35//1 44//1
f 42//23 33//21 41//23
f 43//24 37//19 45//24
f 37//10 39//10 45//10
f 38//1 43//1 46//1
f 38//22 47//26 39//22
f 44//25 40//20 48//25
f 40//10 42//10 48//10
f 41//1 44//1 49//1
f 41//23 50//26 42//23
f 45//24 51//25 43//24
f 45//10 39//10 47//10
f 46//1 43//1 51//1
f 47//26 38//22 46//26
f 48//25 52//24 44//25
f 48//10 42//10 50//10
f 49//1 44//1 53//1
f 50//26 41//23 49//26
f 51//25 45//24 54//25
f 45//10 47//10 54//10
f 46//1 51//1 55//1
f 46//26 56//23 47//26
f 52//24 48//25 57//24
f 53//1 44//1 52//1
f 48//10 50//10 58//10
f 58//22 49//26 53//22
f 49//26 58//22 50//26
f 54//25 59//20 51//25
f 54//10 47//10 56//10
f 55//1 51//1 59//1
f 56//23 46//26 55//23
f 48//10 58//10 57//10
f 57//24 60//19 52//24
f 53//1 52//1 61//1
f 53//22 62//18 58//22
f 59//20 54//25 63//20
f 54//10 56//10 63//10
f 55//1 59//1 64//1
f 55//23 65//21 56//23
f 57//10 58//10 62//10
f 60//19 57//24 66//19
f 61//1 52//1 60//1
f 62//18 53//22 61//18
f 63//20 64//16 59//20
f 63//10 56//10 67//10
f 55//1 64//1 68//1
f 65//21 55//23 68//21
f 67//10 56//10 65//10
f 57//10 62//10 66//10
f 66//19 69//15 60//19
f 61//1 60//1 70//1
f 61//18 71//14 62//18
f 64//16 63//20 67//16
f 68//1 64//1 72//1
f 68//21 73//17 65//21
f 67//10 65//10 74//10
f 66//10 62//10 71//10
f 69//15 66//19 75//15
f 70//1 60//1 69//1
f 71//14 61//18 70//14
f 67//16 72//12 64//16
f 68//1 72//1 76//1
f 73//17 68//21 76//17
f 74//10 65//10 73//10
f 72//12 67//16 74//12
f 66//10 71//10 75//10
f 77//11 69//15 75//15
f 70//1 69//1 78//1
f 78//9 71//14 70//14
f 76//1 72//1 79//1
f 80//13 73//17 76//17
f 74//10 73//10 81//10
f 81//5 72//12 74//12
f 75//10 71//10 82//10
f 69//15 77//11 83//11
f 75//10 82//10 77//10
f 78//1 69//1 83//1
f 71//14 78//9 82//9
f 72//12 81//5 79//5
f 76//1 79//1 80//1
f 73//17 80//13 84//13
f 81//10 73//10 84//10
f 85//8 83//11 77//11
f 77//10 82//10 86//10
f 78//1 83//1 87//1
f 87//2 82//9 78//9
f 88//4 79//5 81//5
f 80//1 79//1 89//1
f 90//6 84//13 80//13
f 81//10 84//10 88//10
f 83//11 85//8 91//8
f 77//10 86//10 85//10
f 82//9 87//2 86//2
f 87//1 83//1 91//1
f 79//5 88//4 89//4
f 80//1 89//1 90//1
f 84//13 90//6 92//6
f 88//10 84//10 92//10
f 93//7 91//8 85//8
f 85//10 86//10 94//10
f 95//3 86//2 87//2
f 87//1 91//1 95//1
f 94//3 89//4 88//4
f 90//1 89//1 95//1
f 96//7 92//6 90//6
f 88//10 92//10 94//10
f 91//8 93//7 96//7
f 85//10 92//10 93//10
f 86//2 95//3 94//3
f 85//10 94//10 92//10
f 90//1 95//1 91//1
f 89//4 94//3 95//3
f 92//6 96//7 93//7
f 90//1 91//1 96//1
usemtl material_1_0
f 3//10 2//10 1//10
f 4//10 1//10 2//10
f 3//7 5//7 2//8
f 1//6 6//6 3//7
f 7//10 1//10 4//10
f 4//10 2//10 8//10
f 9//8 2//8 5//7
f 5//7 3//7 6//6
f 6//6 1//6 10//13
f 11//10 1//10 7//10
f 4//3 12//3 7//4
f 13//10 8//10 2//10
f 8//2 14//2 4//3
f 2//8 9//8 13//11
f 5//1 6//1 9//1
f 11//13 10//13 1//6
f 10//1 15//1 6//1
f 16//10 11//10 7//10
f 15//4 7//4 12//3
f 12//3 4//3 14//2
f 17//10 8//10 13//10
f 14//2 8//2 18//9
f 19//11 13//11 9//8
f 12//1 9//1 6//1
f 10//13 11//13 20//17
f 12//1 6//1 15//1
f 21//1 15//1 10//1
f 22//10 11//10 16//10
f 7//4 15//4 16//5
f 14//1 9//1 12//1
f 17//9 18//9 8//2
f 23//10 17//10 13//10
f 18//1 19//1 14//1
f 13//11 19//11 23//15
f 19//1 9//1 14//1
f 22//17 20//17 11//13
f 20//1 21//1 10//1
f 21//5 16//5 15//4
f 24//10 22//10 16//10
f 18//9 17//9 25//14
f 26//10 17//10 23//10
f 27//1 19//1 18//1
f 27//15 23//15 19//11
f 22//17 28//21 20//17
f 29//1 21//1 20//1
f 16//5 21//5 24//12
f 28//10 22//10 24//10
f 26//14 25//14 17//9
f 25//1 27//1 18//1
f 30//10 26//10 23//10
f 27//15 31//19 23//15
f 32//21 20//17 28//21
f 29//12 24//12 21//5
f 32//1 29//1 20//1
f 33//10 28//10 24//10
f 26//14 34//18 25//14
f 31//1 27//1 25//1
f 34//10 26//10 30//10
f 30//19 23//15 31//19
f 28//21 35//23 32//21
f 29//12 36//16 24//12
f 36//1 29//1 32//1
f 35//10 28//10 33//10
f 33//16 24//12 36//16
f 37//18 25//14 34//18
f 37//1 31//1 25//1
f 38//10 34//10 30//10
f 31//19 39//24 30//19
f 40//23 32//21 35//23
f 40//1 36//1 32//1
f 41//10 35//10 33//10
f 36//16 42//20 33//16
f 34//18 43//22 37//18
f 39//1 31//1 37//1
f 43//10 34//10 38//10
f 38//24 30//19 39//24
f 35//23 44//26 40//23
f 42//1 36//1 40//1
f 44//10 35//10 41//10
f 41//20 33//16 42//20
f 45//22 37//18 43//22
f 45//1 39//1 37//1
f 46//10 43//10 38//10
f 39//24 47//25 38//24
f 48//26 40//23 44//26
f 48//1 42//1 40//1
f 49//10 44//10 41//10
f 42//20 50//25 41//20
f 43//22 51//26 45//22
f 47//1 39//1 45//1
f 51//10 43//10 46//10
f 46//25 38//24 47//25
f 44//26 52//22 48//26
f 50//1 42//1 48//1
f 53//10 44//10 49//10
f 49//25 41//20 50//25
f 54//26 45//22 51//26
f 54//1 47//1 45//1
f 55//10 51//10 46//10
f 47//25 56//20 46//25
f 57//22 48//26 52//22
f 52//10 44//10 53//10
f 58//1 50//1 48//1
f 53//24 49//25 58//24
f 50//25 58//24 49//25
f 51//26 59//23 54//26
f 56//1 47//1 54//1
f 59//10 51//10 55//10
f 55//20 46//25 56//20
f 57//1 58//1 48//1
f 52//22 60//18 57//22
f 61//10 52//10 53//10
f 58//24 62//19 53//24
f 63//23 54//26 59//23
f 63//1 56//1 54//1
f 64//10 59//10 55//10
f 56//20 65//16 55//20
f 62//1 58//1 57//1
f 66//18 57//22 60//18
f 60//10 52//10 61//10
f 61//19 53//24 62//19
f 59//23 64//21 63//23
f 67//1 56//1 63//1
f 68//10 64//10 55//10
f 68//16 55//20 65//16
f 65//1 56//1 67//1
f 66//1 62//1 57//1
f 60//18 69//14 66//18
f 70//10 60//10 61//10
f 62//19 71//15 61//19
f 67//21 63//23 64//21
f 72//10 64//10 68//10
f 65//16 73//12 68//16
f 74//1 65//1 67//1
f 71//1 62//1 66//1
f 75//14 66//18 69//14
f 69//10 60//10 70//10
f 70//15 61//19 71//15
f 64//21 72//17 67//21
f 76//10 72//10 68//10
f 76//12 68//16 73//12
f 73//1 65//1 74//1
f 74//17 67//21 72//17
f 75//1 71//1 66//1
f 75//14 69//14 77//9
f 78//10 69//10 70//10
f 70//15 71//15 78//11
f 79//10 72//10 76//10
f 76//12 73//12 80//5
f 81//1 73//1 74//1
f 74//17 72//17 81//13
f 82//1 71//1 75//1
f 83//9 77//9 69//14
f 77//1 82//1 75//1
f 83//10 69//10 78//10
f 82//11 78//11 71//15
f 79//13 81//13 72//17
f 80//10 79//10 76//10
f 84//5 80//5 73//12
f 84//1 73//1 81//1
f 77//9 83//9 85//2
f 86//1 82//1 77//1
f 87//10 83//10 78//10
f 78//11 82//11 87//8
f 81//13 79//13 88//6
f 89//10 79//10 80//10
f 80//5 84//5 90//4
f 88//1 84//1 81//1
f 91//2 85//2 83//9
f 85//1 86//1 77//1
f 86//8 87//8 82//11
f 91//10 83//10 87//10
f 89//6 88//6 79//13
f 90//10 89//10 80//10
f 92//4 90//4 84//5
f 92//1 84//1 88//1
f 85//2 91//2 93//3
f 94//1 86//1 85//1
f 87//8 86//8 95//7
f 95//10 91//10 87//10
f 88//6 89//6 94//7
f 95//10 89//10 90//10
f 90//4 92//4 96//3
f 94//1 92//1 88//1
f 96//3 93//3 91//2
f 93//1 92//1 85//1
f 94//7 95//7 86//8
f 92//1 94//1 85//1
f 91//10 95//10 90//10
f 95//7 94//7 89//6
f 93//3 96//3 92//4
f 96//10 91//10 90//10
