# SSTK version 0.8.0
# 22
mtllib original-22.mtl
o Group11/mesh11/mesh11-geometry#mesh11-geometry
v 0.241569 -0.160888 0.299057
v 0.241569 -0.145468 0.275061
v 0.241569 -0.153241 0.299726
v 0.241569 -0.146996 0.277244
v 0.241569 -0.134656 0.248665
v 0.244545 -0.160888 0.299057
v 0.241569 -0.149038 0.278957
v 0.244545 -0.146996 0.277244
v 0.241569 -0.129721 0.254546
v 0.241569 -0.144556 0.272556
v 0.244545 -0.153241 0.299726
v 0.244545 -0.168102 0.296432
v 0.241569 -0.151453 0.280084
v 0.244545 -0.149038 0.278957
v 0.244545 -0.145468 0.275061
v 0.241569 -0.126477 0.261504
v 0.244545 -0.129721 0.254546
v 0.241569 -0.144324 0.269901
v 0.241569 -0.145680 0.298393
v 0.241569 -0.168102 0.296432
v 0.244545 -0.151453 0.280084
v 0.244545 -0.126477 0.261504
v 0.244545 -0.134656 0.248665
v 0.244545 -0.144556 0.272556
v 0.241569 -0.144786 0.267277
v 0.244545 -0.145680 0.298393
v 0.244545 -0.174391 0.292028
v 0.244545 -0.154078 0.280546
v 0.241569 -0.154078 0.280546
v 0.241569 -0.138722 0.295149
v 0.241569 -0.125144 0.269064
v 0.241569 -0.140944 0.244262
v 0.244545 -0.144324 0.269901
v 0.244545 -0.138722 0.295149
v 0.241569 -0.174391 0.292028
v 0.244545 -0.161421 0.277874
v 0.244545 -0.156733 0.280314
v 0.241569 -0.156733 0.280314
v 0.244545 -0.125144 0.269064
v 0.244545 -0.140944 0.244262
v 0.244545 -0.144786 0.267277
v 0.241569 -0.145913 0.264861
v 0.241569 -0.161421 0.277874
v 0.244545 -0.179325 0.286148
v 0.244545 -0.159237 0.279402
v 0.244545 -0.163134 0.275832
v 0.241569 -0.159237 0.279402
v 0.241569 -0.125813 0.276712
v 0.244545 -0.132842 0.290214
v 0.241568 -0.148158 0.241636
v 0.244545 -0.145913 0.264861
v 0.241569 -0.147626 0.262820
v 0.241569 -0.163134 0.275832
v 0.241569 -0.179325 0.286148
v 0.244545 -0.164723 0.270792
v 0.244545 -0.164260 0.273417
v 0.241569 -0.132842 0.290214
v 0.244545 -0.125813 0.276712
v 0.244545 -0.148158 0.241636
v 0.241569 -0.152314 0.260380
v 0.244545 -0.147626 0.262820
v 0.241569 -0.149809 0.261291
v 0.241569 -0.164260 0.273417
v 0.241569 -0.164723 0.270792
v 0.244545 -0.182570 0.279190
v 0.244545 -0.164490 0.268137
v 0.241569 -0.128438 0.283926
v 0.244545 -0.128438 0.283926
v 0.244545 -0.152314 0.260380
v 0.241568 -0.155806 0.240967
v 0.241569 -0.154969 0.260147
v 0.244545 -0.149809 0.261291
v 0.241569 -0.164490 0.268137
v 0.241569 -0.182570 0.279190
v 0.244545 -0.163366 0.242300
v 0.244545 -0.163579 0.265633
v 0.244545 -0.154969 0.260147
v 0.244545 -0.155806 0.240967
v 0.241569 -0.160009 0.261736
v 0.241569 -0.157593 0.260610
v 0.241569 -0.163579 0.265633
v 0.241568 -0.163366 0.242300
v 0.241569 -0.183903 0.271630
v 0.244545 -0.183903 0.271630
v 0.244545 -0.157593 0.260610
v 0.244545 -0.160009 0.261736
v 0.241569 -0.162050 0.263449
v 0.244545 -0.170324 0.245545
v 0.244545 -0.162050 0.263449
v 0.241568 -0.170324 0.245545
v 0.241569 -0.183234 0.263982
v 0.244545 -0.176205 0.250479
v 0.241568 -0.176205 0.250479
v 0.244545 -0.183234 0.263982
v 0.241569 -0.180608 0.256768
v 0.244545 -0.180608 0.256768
vt 0.027995 0.007501
vt 0.036553 0.05599
vt 0.041499 0.001908
vt 0.037215 0.05096
vt 0.041499 0.110073
vt 0 -0.03761
vt 0 -0.022994
vt 0.005668 -0.03761
vt 0.039157 0.046272
vt 0 0.045666
vt -0.005668 0.045666
vt 0 0.05074
vt 0.027995 0.10448
vt 0.037215 0.061021
vt 0.005668 -0.022994
vt 0.005668 -0.040895
vt 0.005668 -0.055511
vt 0 -0.040895
vt 0.042246 0.042246
vt 0 0.027765
vt -0.005668 0.027765
vt 0 0.032839
vt -0.005668 0.05074
vt -0.005668 0.032839
vt 0.016399 0.095582
vt 0 0.065847
vt 0 0.080463
vt 0.005668 0.065847
vt 0 0.060283
vt -0.005668 0.060283
vt 0 0.065357
vt 0.039157 0.065709
vt 0 -0.017644
vt 0 -0.003027
vt 0.005668 -0.017644
vt 0 -0.055511
vt 0.05599 0
vt 0 0.007798
vt -0.005668 0.007798
vt 0 0.012873
vt -0.005668 0.012873
vt 0.016399 0.016399
vt 0 0.071197
vt 0 0.085813
vt 0.005668 0.071197
vt 0.005668 0.080463
vt 0.005668 0.085813
vt -0.005668 0.065357
vt 0 0.070618
vt -0.005668 0.070618
vt 0 0.075692
vt 0.042246 0.069735
vt 0.005668 -0.003027
vt -0.005668 0.055511
vt -0.005668 0.070128
vt 0 0.055511
vt 0.046272 0.039157
vt 0 -0.007798
vt 0 -0.012873
vt -0.005668 -0.007798
vt 0.007501 0.027995
vt 0 0.070128
vt 0.005668 0.055511
vt -0.005668 0.075692
vt 0 0.075968
vt -0.005668 0.075968
vt 0 0.081042
vt 0.05599 0.111981
vt 0.005668 0.003027
vt 0 0.003027
vt 0.005668 0.017644
vt 0.070482 0.001908
vt 0.061021 0.037215
vt 0.05096 0.037215
vt -0.005668 -0.012873
vt 0.007501 0.083986
vt 0 0.017644
vt 0.005668 0.070128
vt -0.005668 0.081042
vt 0.046272 0.072824
vt -0.005668 0.065847
vt -0.005668 0.080463
vt 0.05599 0.036553
vt 0.065709 0.039157
vt -0.005668 -0.032839
vt -0.005668 -0.027765
vt 0 -0.032839
vt 0 -0.027765
vt 0.001908 0.070482
vt 0.005668 0.022994
vt 0 0.022994
vt 0.005668 0.03761
vt -0.005668 -0.040895
vt 0.05096 0.074766
vt 0.083986 0.007501
vt 0.072824 0.046272
vt 0.005668 0.065357
vt 0.005668 0.060283
vt 0.069735 0.042246
vt 0.005668 0.075692
vt 0.005668 0.070618
vt -0.005668 -0.05074
vt -0.005668 -0.045666
vt 0 -0.05074
vt 0 -0.045666
vt 0.001908 0.041499
vt 0 0.03761
vt -0.005668 -0.055511
vt 0.070482 0.110073
vt 0.061021 0.074766
vt 0.05599 0.075428
vt -0.005668 0.071197
vt -0.005668 0.085813
vt 0.074766 0.05096
vt 0.005668 0.081042
vt 0.005668 0.075968
vt 0 0.05599
vt 0.005668 0.040895
vt 0 0.040895
vt -0.005668 -0.022994
vt 0.065709 0.072824
vt 0.095582 0.016399
vt 0.095582 0.095582
vt 0.075428 0.05599
vt -0.005668 -0.03761
vt 0.083986 0.10448
vt 0.072824 0.065709
vt 0.005668 -0.05074
vt 0.005668 -0.032839
vt 0.069735 0.069735
vt 0.005668 -0.045666
vt 0.10448 0.027995
vt 0.005668 -0.027765
vt -0.005668 -0.003027
vt 0.074766 0.061021
vt 0.005668 -0.007798
vt 0.005668 -0.012873
vt -0.005668 -0.017644
vt 0.10448 0.083986
vt 0.005668 0.012873
vt 0.005668 0.032839
vt 0.005668 0.045666
vt 0.005668 0.05074
vt -0.005668 0.017644
vt -0.005668 0.003027
vt 0.110073 0.070482
vt 0.005668 0.007798
vt 0.005668 0.027765
vt 0.110073 0.041499
vt -0.005668 0.03761
vt -0.005668 0.022994
vt 0.111981 0.05599
vt -0.005668 0.040895
vn 1 -2.593836889784709e-7 -7.273310928760177e-7
vn 7.478628691827855e-7 -0.20114870930668574 0.9795607162109428
vn 8.026630718340324e-7 0.0703466286001549 0.9975226071843923
vn -4.991242916450247e-7 -0.8870107132402784 -0.4617488436333368
vn -6.393263014802096e-7 -0.7472165172418627 -0.664580677089345
vn 6.354570049665017e-7 -0.46174874599450655 0.8870107640677742
vn -7.419203006438907e-7 -0.5590179640029039 -0.8291555438646583
vn -2.80576065861915e-7 0.8574720364464162 -0.5145305692690738
vn -4.7445272997563067e-7 0.6870352328376418 -0.7266241042241183
vn -3.2863382790737744e-7 -0.9729782904636841 -0.23089661384753676
vn 7.989643338074824e-7 0.3295935312136812 0.9441229285328567
vn -7.989643338074824e-7 -0.3295935312136812 -0.9441229285328567
vn -7.193931126320881e-8 0.9624274230375998 -0.2715390494665545
vn -1.3525719710483997e-7 -0.9998439987294068 0.01766290476597544
vn 4.7445272997563067e-7 -0.6870352328376418 0.7266241042241183
vn -8.026630718340324e-7 -0.0703466286001549 -0.9975226071843923
vn 1.3525719710483997e-7 0.9998439987294068 -0.01766290476597544
vn -6.354570049665017e-7 0.46174874599450655 -0.8870107640677742
vn 7.193931126320881e-8 -0.9624274230375998 0.2715390494665545
vn 7.419203006438907e-7 0.5590179640029039 0.8291555438646583
vn 2.80576065861915e-7 -0.8574720364464162 0.5145305692690738
vn -7.478628691827855e-7 0.20114870930668574 -0.9795607162109428
vn 6.393263014802096e-7 0.7472165172418627 0.664580677089345
vn 3.2863382790737744e-7 0.9729782904636841 0.23089661384753676
vn 4.991242916450247e-7 0.8870107132402784 0.4617488436333368
vn -1 2.593836889784709e-7 7.273310928760177e-7
usemtl material_0_0
f 1//1 2//1 3//1
f 2//1 1//1 4//1
f 5//1 3//1 2//1
f 6//2 3//3 1//2
f 4//1 1//1 7//1
f 2//4 8//5 4//5
f 9//1 3//1 5//1
f 5//1 2//1 10//1
f 3//3 6//2 11//3
f 1//2 12//6 6//2
f 7//1 1//1 13//1
f 4//5 14//7 7//7
f 8//5 2//4 15//4
f 14//7 4//5 8//5
f 16//1 3//1 9//1
f 17//8 5//9 9//8
f 10//10 15//4 2//4
f 5//1 10//1 18//1
f 6//1 15//1 11//1
f 11//3 19//11 3//3
f 12//6 1//2 20//6
f 21//1 6//1 12//1
f 13//1 1//1 20//1
f 7//7 21//12 13//12
f 21//12 7//7 14//7
f 15//1 6//1 8//1
f 8//1 6//1 14//1
f 16//1 19//1 3//1
f 22//13 9//8 16//13
f 5//9 17//8 23//9
f 9//8 22//13 17//8
f 15//4 10//10 24//10
f 18//14 24//10 10//10
f 5//1 18//1 25//1
f 23//1 11//1 15//1
f 19//11 11//3 26//11
f 20//6 27//15 12//6
f 14//1 6//1 21//1
f 21//1 12//1 28//1
f 13//1 20//1 29//1
f 21//12 29//16 13//12
f 16//1 30//1 19//1
f 31//17 22//13 16//13
f 17//1 11//1 23//1
f 23//9 32//18 5//9
f 22//1 11//1 17//1
f 23//1 15//1 24//1
f 24//10 18//14 33//14
f 25//19 33//14 18//14
f 5//1 25//1 32//1
f 22//1 26//1 11//1
f 34//20 19//11 26//11
f 27//15 20//6 35//15
f 36//1 12//1 27//1
f 28//1 12//1 37//1
f 29//16 21//12 28//16
f 29//1 20//1 38//1
f 31//1 30//1 16//1
f 19//11 34//20 30//20
f 22//13 31//17 39//17
f 32//18 23//9 40//18
f 23//1 24//1 33//1
f 33//14 25//19 41//19
f 32//1 25//1 42//1
f 22//1 34//1 26//1
f 43//1 20//1 35//1
f 35//15 44//21 27//15
f 45//1 12//1 36//1
f 36//1 27//1 46//1
f 37//1 12//1 45//1
f 38//22 28//16 37//22
f 28//16 38//22 29//16
f 38//1 20//1 47//1
f 48//1 30//1 31//1
f 49//23 30//20 34//20
f 48//24 39//17 31//17
f 39//1 34//1 22//1
f 23//1 41//1 40//1
f 40//18 50//22 32//18
f 23//1 33//1 41//1
f 25//19 51//21 41//19
f 51//21 25//19 42//21
f 32//1 42//1 52//1
f 47//1 20//1 43//1
f 43//1 35//1 53//1
f 44//21 35//15 54//21
f 55//1 27//1 44//1
f 43//9 45//18 36//9
f 46//1 27//1 56//1
f 53//8 36//9 46//8
f 47//18 37//22 45//18
f 37//22 47//18 38//22
f 48//1 57//1 30//1
f 30//20 49//23 57//23
f 58//1 49//1 34//1
f 39//17 48//24 58//24
f 58//1 34//1 39//1
f 40//1 41//1 51//1
f 50//22 40//18 59//22
f 32//1 60//1 50//1
f 42//21 61//15 51//21
f 61//15 42//21 52//15
f 32//1 52//1 62//1
f 45//18 43//9 47//18
f 53//1 35//1 63//1
f 36//9 53//8 43//9
f 64//1 35//1 54//1
f 54//21 65//19 44//21
f 56//1 27//1 55//1
f 55//1 44//1 66//1
f 63//13 46//8 56//13
f 46//8 63//13 53//8
f 57//1 48//1 67//1
f 68//25 57//23 49//23
f 49//1 58//1 68//1
f 67//25 58//24 48//24
f 40//1 51//1 61//1
f 40//1 69//1 59//1
f 59//22 70//16 50//22
f 32//1 62//1 60//1
f 50//1 60//1 71//1
f 52//15 72//6 61//15
f 72//6 52//15 62//6
f 63//1 35//1 64//1
f 64//1 54//1 73//1
f 65//19 54//21 74//19
f 75//1 44//1 65//1
f 55//17 63//13 56//13
f 66//1 44//1 76//1
f 66//24 64//17 55//17
f 57//23 68//25 67//25
f 58//24 67//25 68//25
f 40//1 61//1 72//1
f 40//1 72//1 69//1
f 59//1 69//1 77//1
f 70//16 59//22 78//16
f 50//1 79//1 70//1
f 69//2 62//6 60//2
f 77//3 60//2 71//3
f 50//1 71//1 80//1
f 62//6 69//2 72//6
f 63//13 55//17 64//17
f 73//1 54//1 81//1
f 64//17 66//24 73//24
f 82//1 54//1 74//1
f 83//14 65//19 74//19
f 78//1 44//1 75//1
f 75//1 65//1 84//1
f 76//1 44//1 78//1
f 76//25 73//24 66//24
f 60//2 77//3 69//2
f 59//1 77//1 85//1
f 59//1 86//1 78//1
f 78//16 82//12 70//16
f 50//1 80//1 79//1
f 70//1 79//1 87//1
f 71//3 85//11 77//3
f 85//11 71//3 80//11
f 81//1 54//1 70//1
f 73//24 76//25 81//25
f 70//1 54//1 82//1
f 82//1 74//1 83//1
f 65//19 83//14 84//14
f 82//12 78//16 75//12
f 75//1 84//1 88//1
f 78//1 89//1 76//1
f 59//1 85//1 86//1
f 78//1 86//1 89//1
f 79//20 85//11 80//11
f 87//23 86//20 79//20
f 70//1 87//1 81//1
f 89//23 81//25 76//25
f 82//1 83//1 90//1
f 91//10 84//14 83//14
f 88//7 82//12 75//12
f 88//1 84//1 92//1
f 85//11 79//20 86//20
f 86//20 87//23 89//23
f 81//25 89//23 87//23
f 90//1 83//1 93//1
f 82//12 88//7 90//7
f 84//14 91//10 94//10
f 93//1 83//1 91//1
f 92//1 84//1 94//1
f 92//5 90//7 88//7
f 90//7 92//5 93//5
f 95//4 94//10 91//10
f 93//1 91//1 95//1
f 92//1 94//1 96//1
f 96//4 93//5 92//5
f 94//10 95//4 96//4
f 93//5 96//4 95//4
usemtl material_1_0
f 3/1/26 2/2/26 1/3/26
f 4/4/26 1/3/26 2/2/26
f 2/2/26 3/1/26 5/5/26
f 1/6/22 3/7/16 6/8/22
f 7/9/26 1/3/26 4/4/26
f 4/10/23 8/11/23 2/12/25
f 5/5/26 3/1/26 9/13/26
f 10/14/26 2/2/26 5/5/26
f 11/15/16 6/8/22 3/7/16
f 6/16/22 12/17/18 1/18/22
f 13/19/26 1/3/26 7/9/26
f 7/20/20 14/21/20 4/22/23
f 15/23/25 2/12/25 8/11/23
f 8/24/23 4/22/23 14/21/20
f 9/13/26 3/1/26 16/25/26
f 9/26/21 5/27/15 17/28/21
f 2/29/25 15/30/25 10/31/24
f 18/32/26 10/14/26 5/5/26
f 11/1/26 15/2/26 6/3/26
f 3/33/16 19/34/12 11/35/16
f 20/36/18 1/18/22 12/17/18
f 12/37/26 6/3/26 21/19/26
f 20/37/26 1/3/26 13/19/26
f 13/38/11 21/39/11 7/40/20
f 14/41/20 7/40/20 21/39/11
f 8/4/26 6/3/26 15/2/26
f 14/9/26 6/3/26 8/4/26
f 3/1/26 19/42/26 16/25/26
f 16/43/19 9/44/21 22/45/19
f 23/46/15 17/28/21 5/27/15
f 17/47/21 22/45/19 9/44/21
f 24/48/24 10/31/24 15/30/25
f 10/49/24 24/50/24 18/51/17
f 25/52/26 18/32/26 5/5/26
f 15/2/26 11/1/26 23/5/26
f 26/53/12 11/35/16 19/34/12
f 12/54/18 27/55/9 20/56/18
f 21/19/26 6/3/26 14/9/26
f 28/57/26 12/37/26 21/19/26
f 29/57/26 20/37/26 13/19/26
f 13/58/11 29/59/3 21/60/11
f 19/42/26 30/61/26 16/25/26
f 16/44/19 22/47/19 31/43/14
f 23/5/26 11/1/26 17/13/26
f 5/56/15 32/62/6 23/63/15
f 17/13/26 11/1/26 22/25/26
f 24/14/26 15/2/26 23/5/26
f 33/64/17 18/51/17 24/50/24
f 18/65/17 33/66/17 25/67/13
f 32/68/26 25/52/26 5/5/26
f 11/1/26 26/42/26 22/25/26
f 26/69/12 19/70/12 34/71/7
f 35/62/9 20/56/18 27/55/9
f 27/72/26 12/37/26 36/73/26
f 37/74/26 12/37/26 28/57/26
f 28/75/3 21/60/11 29/59/3
f 38/74/26 20/37/26 29/57/26
f 16/25/26 30/61/26 31/76/26
f 30/77/7 34/71/7 19/70/12
f 39/45/14 31/43/14 22/47/19
f 40/78/6 23/63/15 32/62/6
f 33/32/26 24/14/26 23/5/26
f 41/79/13 25/67/13 33/66/17
f 42/80/26 25/52/26 32/68/26
f 26/42/26 34/61/26 22/25/26
f 35/72/26 20/37/26 43/73/26
f 27/81/9 44/82/8 35/26/9
f 36/73/26 12/37/26 45/83/26
f 46/84/26 27/72/26 36/73/26
f 45/83/26 12/37/26 37/74/26
f 37/85/2 28/86/3 38/87/2
f 29/88/3 38/87/2 28/86/3
f 47/83/26 20/37/26 38/74/26
f 31/76/26 30/61/26 48/89/26
f 34/90/7 30/91/7 49/92/5
f 31/27/14 39/46/14 48/26/10
f 22/25/26 34/61/26 39/76/26
f 40/68/26 41/52/26 23/5/26
f 32/18/6 50/36/2 40/93/6
f 41/52/26 33/32/26 23/5/26
f 41/66/13 51/79/8 25/65/13
f 42/67/8 25/65/13 51/79/8
f 52/94/26 42/80/26 32/68/26
f 43/73/26 20/37/26 47/83/26
f 53/84/26 35/72/26 43/73/26
f 54/27/8 35/26/9 44/82/8
f 44/95/26 27/72/26 55/96/26
f 36/97/15 45/98/6 43/31/15
f 56/99/26 27/72/26 46/84/26
f 46/100/21 36/101/15 53/51/21
f 45/102/6 37/103/2 47/104/6
f 38/105/2 47/104/6 37/103/2
f 30/61/26 57/106/26 48/89/26
f 57/107/5 49/92/5 30/91/7
f 34/61/26 49/106/26 58/89/26
f 58/28/10 48/26/10 39/46/14
f 39/76/26 34/61/26 58/89/26
f 51/80/26 41/52/26 40/68/26
f 59/108/2 40/93/6 50/36/2
f 50/109/26 60/110/26 32/68/26
f 51/50/8 61/64/9 42/49/8
f 52/51/9 42/49/8 61/64/9
f 62/111/26 52/94/26 32/68/26
f 47/29/6 43/31/15 45/98/6
f 63/99/26 35/72/26 53/84/26
f 43/49/15 53/51/21 36/101/15
f 54/95/26 35/72/26 64/96/26
f 44/112/8 65/113/13 54/43/8
f 55/96/26 27/72/26 56/99/26
f 66/114/26 44/95/26 55/96/26
f 56/115/19 46/116/21 63/67/19
f 53/65/21 63/67/19 46/116/21
f 67/117/26 48/89/26 57/106/26
f 49/118/5 57/119/5 68/63/4
f 68/117/26 58/89/26 49/106/26
f 48/62/10 58/78/10 67/56/4
f 61/94/26 51/80/26 40/68/26
f 59/109/26 69/110/26 40/68/26
f 50/7/2 70/6/3 59/120/2
f 60/110/26 62/111/26 32/68/26
f 71/121/26 60/110/26 50/109/26
f 61/30/9 72/48/18 52/29/9
f 62/31/18 52/29/9 72/48/18
f 64/96/26 35/72/26 63/99/26
f 73/114/26 54/95/26 64/96/26
f 74/44/13 54/43/8 65/113/13
f 65/122/26 44/95/26 75/123/26
f 56/116/19 63/65/19 55/115/14
f 76/124/26 44/95/26 66/114/26
f 55/101/14 64/49/14 66/100/10
f 67/56/4 68/63/4 57/119/5
f 68/63/4 67/56/4 58/78/10
f 72/111/26 61/94/26 40/68/26
f 69/110/26 72/111/26 40/68/26
f 77/121/26 69/110/26 59/109/26
f 78/125/3 59/120/2 70/6/3
f 70/126/26 79/127/26 50/109/26
f 60/104/22 62/105/18 69/128/22
f 71/87/16 60/88/22 77/129/16
f 80/130/26 71/121/26 50/109/26
f 72/131/18 69/128/22 62/105/18
f 64/67/14 55/115/14 63/65/19
f 81/124/26 54/95/26 73/114/26
f 73/51/10 66/100/10 64/49/14
f 74/122/26 54/95/26 82/123/26
f 74/43/13 65/112/13 83/44/17
f 75/123/26 44/95/26 78/126/26
f 84/132/26 65/122/26 75/123/26
f 78/126/26 44/95/26 76/124/26
f 66/98/10 73/29/10 76/97/4
f 69/133/22 77/129/16 60/88/22
f 85/130/26 77/121/26 59/109/26
f 78/126/26 86/127/26 59/109/26
f 70/34/3 82/33/11 78/134/3
f 79/127/26 80/130/26 50/109/26
f 87/135/26 79/127/26 70/126/26
f 77/136/16 85/137/12 71/58/16
f 80/59/12 71/58/16 85/137/12
f 70/126/26 54/95/26 81/124/26
f 81/31/4 76/97/4 73/29/10
f 82/123/26 54/95/26 70/126/26
f 83/132/26 74/122/26 82/123/26
f 84/113/17 83/44/17 65/112/13
f 75/138/11 78/134/3 82/33/11
f 88/139/26 84/132/26 75/123/26
f 76/124/26 89/135/26 78/126/26
f 86/127/26 85/130/26 59/109/26
f 89/135/26 86/127/26 78/126/26
f 80/40/12 85/140/12 79/38/7
f 79/22/7 86/141/7 87/20/5
f 81/124/26 87/135/26 70/126/26
f 76/142/4 81/10/4 89/143/5
f 90/139/26 83/132/26 82/123/26
f 83/26/17 84/81/17 91/27/24
f 75/144/11 82/77/11 88/145/20
f 92/146/26 84/132/26 88/139/26
f 86/147/7 79/38/7 85/140/12
f 89/148/5 87/20/5 86/141/7
f 87/12/5 89/143/5 81/10/4
f 93/146/26 83/132/26 90/139/26
f 90/70/20 88/145/20 82/77/11
f 94/82/24 91/27/24 84/81/17
f 91/149/26 83/132/26 93/146/26
f 94/149/26 84/132/26 92/146/26
f 88/150/20 90/107/20 92/151/23
f 93/91/23 92/151/23 90/107/20
f 91/56/24 94/54/24 95/62/25
f 95/152/26 91/149/26 93/146/26
f 96/152/26 94/149/26 92/146/26
f 92/54/23 93/56/23 96/153/25
f 96/55/25 95/62/25 94/54/24
f 95/119/25 96/153/25 93/56/23
