# SSTK version 0.8.0
# 43
mtllib original-43.mtl
o mesh28/mesh28-geometry#mesh28-geometry
v 0.209852 -0.008107 0.320848
v 0.209852 -0.028110 0.359274
v 0.209852 -0.013710 0.317932
v 0.004462 -0.062469 0.292549
v 0.209852 -0.033713 0.356357
v 0.004462 -0.082472 0.330975
v 0.209852 -0.037978 0.305298
v 0.175925 -0.068072 0.289633
v 0.004462 -0.068072 0.289633
v 0.209852 -0.039257 0.353471
v 0.004462 -0.088075 0.328058
v 0.209852 -0.057981 0.343724
v 0.175925 -0.088075 0.328058
vn 1 0 0
vn -1 0 0
vn -0.28593297951795715 0.8499776747249681 0.4424706585674578
vn 0.28593297951795715 -0.8499776747249681 -0.4424706585674578
vn 0 0.4617488492108586 -0.8870107103369427
vn 0 -0.4617488492108586 0.8870107103369427
vn 0.7071068966432492 -0.627211185853001 -0.32650568917007494
vn -0.7071068966432492 0.627211185853001 0.32650568917007494
vn 0 -0.8870107103369427 -0.4617488492108587
vn 0 0.8870107103369427 0.4617488492108587
usemtl material_0_0
f 1//1 2//1 3//1
f 3//2 2//2 1//2
f 1//3 4//3 2//3
f 2//4 4//4 1//4
f 5//1 3//1 2//1
f 2//2 3//2 5//2
f 1//5 3//5 4//5
f 4//6 3//6 1//6
f 6//3 2//3 4//3
f 4//4 2//4 6//4
f 3//1 5//1 7//1
f 7//2 5//2 3//2
f 2//6 6//6 5//6
f 5//5 6//5 2//5
f 8//5 4//5 3//5
f 3//6 4//6 8//6
f 4//1 6//1 9//1
f 9//2 6//2 4//2
f 10//1 7//1 5//1
f 5//2 7//2 10//2
f 3//5 7//5 8//5
f 8//6 7//6 3//6
f 10//6 5//6 6//6
f 6//5 5//5 10//5
f 9//5 4//5 8//5
f 8//6 4//6 9//6
f 11//1 9//1 6//1
f 6//2 9//2 11//2
f 12//1 7//1 10//1
f 10//2 7//2 12//2
f 7//7 12//7 8//7
f 8//8 12//8 7//8
f 13//6 10//6 6//6
f 6//5 10//5 13//5
f 8//9 13//9 9//9
f 9//10 13//10 8//10
f 11//9 9//9 13//9
f 13//10 9//10 11//10
f 11//6 13//6 6//6
f 6//5 13//5 11//5
f 12//6 10//6 13//6
f 13//5 10//5 12//5
f 13//7 8//7 12//7
f 12//8 8//8 13//8
