# SSTK version 0.8.0
# 29
mtllib original-29.mtl
o Group16/mesh24/mesh24-geometry#mesh24-geometry
v 0.211033 0.156622 -0.279989
v 0.211033 0.106062 -0.306309
v 0.211033 0.159539 -0.285592
v 0.004483 0.079857 -0.255969
v 0.211033 0.108979 -0.311912
v 0.004483 0.130417 -0.229649
v 0.004483 0.082774 -0.261572
v 0.004483 0.133334 -0.235253
v -0.202066 0.106062 -0.306309
v -0.202066 0.108979 -0.311912
v -0.202066 0.156622 -0.279989
v -0.202066 0.159539 -0.285592
vn 1 0 0
vn 0.3233729807046582 -0.4369399739282295 0.8393529499166503
vn 0 0.8870107103369427 0.4617488492108587
vn 0 -0.8870107103369427 -0.4617488492108587
vn -0.3233729807046582 0.4369399739282295 -0.8393529499166503
vn -0.3233729807046582 -0.4369399739282295 0.8393529499166503
vn 0.3233729807046582 0.4369399739282295 -0.8393529499166503
vn -1 0 0
usemtl material_0_0
f 1//1 2//1 3//1
f 2//2 1//2 4//2
f 5//1 3//1 2//1
f 1//3 3//3 6//3
f 6//2 4//2 1//2
f 4//4 7//4 2//4
f 5//5 7//5 3//5
f 5//4 2//4 7//4
f 8//3 6//3 3//3
f 6//1 4//1 8//1
f 4//6 6//6 9//6
f 7//1 8//1 4//1
f 7//4 4//4 10//4
f 8//5 3//5 7//5
f 6//3 8//3 11//3
f 11//6 9//6 6//6
f 9//4 10//4 4//4
f 8//7 7//7 12//7
f 10//7 12//7 7//7
f 12//3 11//3 8//3
f 11//8 12//8 9//8
f 10//8 9//8 12//8
usemtl material_1_0
f 3//8 2//8 1//8
f 4//5 1//5 2//5
f 2//8 3//8 5//8
f 6//4 3//4 1//4
f 1//5 4//5 6//5
f 2//3 7//3 4//3
f 3//2 7//2 5//2
f 7//3 2//3 5//3
f 3//4 6//4 8//4
f 8//8 4//8 6//8
f 9//7 6//7 4//7
f 4//8 8//8 7//8
f 10//3 4//3 7//3
f 7//2 3//2 8//2
f 11//4 8//4 6//4
f 6//7 9//7 11//7
f 4//3 10//3 9//3
f 12//6 7//6 8//6
f 7//6 12//6 10//6
f 8//4 11//4 12//4
f 9//1 12//1 11//1
f 12//1 9//1 10//1
