# SSTK version 0.8.0
# 33
mtllib original-33.mtl
o mesh28/mesh28-geometry#mesh28-geometry
v -0.200929 0.221853 -0.120902
v -0.200929 0.241856 -0.159327
v -0.200929 0.216250 -0.123818
v 0.004462 0.167491 -0.149201
v -0.200929 0.236253 -0.162244
v 0.004462 0.187494 -0.187626
v -0.200929 0.191982 -0.136452
v -0.167002 0.161888 -0.152117
v 0.004462 0.161888 -0.152117
v -0.200929 0.230710 -0.165129
v 0.004462 0.181891 -0.190543
v -0.200929 0.211985 -0.174877
v -0.167002 0.181891 -0.190543
vn -1 0 0
vn 1 0 0
vn 0.2859329795179572 0.8499776747249683 0.44247065856745776
vn -0.2859329795179572 -0.8499776747249683 -0.44247065856745776
vn 0 -0.4617488492108586 0.8870107103369427
vn 0 0.4617488492108586 -0.8870107103369427
vn -0.7071068966432492 -0.627211185853001 -0.32650568917007483
vn 0.7071068966432492 0.627211185853001 0.32650568917007483
vn 0 -0.8870107103369427 -0.46174884921085857
vn 0 0.8870107103369427 0.46174884921085857
usemtl material_0_0
f 1//1 2//1 3//1
f 3//2 2//2 1//2
f 1//3 4//3 2//3
f 2//4 4//4 1//4
f 5//1 3//1 2//1
f 2//2 3//2 5//2
f 1//5 3//5 4//5
f 4//6 3//6 1//6
f 6//3 2//3 4//3
f 4//4 2//4 6//4
f 3//1 5//1 7//1
f 7//2 5//2 3//2
f 2//6 6//6 5//6
f 5//5 6//5 2//5
f 8//5 4//5 3//5
f 3//6 4//6 8//6
f 4//1 6//1 9//1
f 9//2 6//2 4//2
f 10//1 7//1 5//1
f 5//2 7//2 10//2
f 3//5 7//5 8//5
f 8//6 7//6 3//6
f 10//6 5//6 6//6
f 6//5 5//5 10//5
f 9//5 4//5 8//5
f 8//6 4//6 9//6
f 11//1 9//1 6//1
f 6//2 9//2 11//2
f 12//1 7//1 10//1
f 10//2 7//2 12//2
f 7//7 12//7 8//7
f 8//8 12//8 7//8
f 13//6 10//6 6//6
f 6//5 10//5 13//5
f 8//9 13//9 9//9
f 9//10 13//10 8//10
f 11//9 9//9 13//9
f 13//10 9//10 11//10
f 11//6 13//6 6//6
f 6//5 13//5 11//5
f 12//6 10//6 13//6
f 13//5 10//5 12//5
f 13//7 8//7 12//7
f 12//8 8//8 13//8
