# SSTK version 0.8.0
# 47
mtllib original-47.mtl
o mesh51/mesh51-geometry#mesh51-geometry
v 0.222125 -0.116136 0.453147
v 0.226654 0.406939 -0.547607
v 0.226654 -0.114472 0.454013
v 0.222125 0.405275 -0.548474
v 0.230543 -0.111825 0.455391
v 0.222125 -0.083958 0.469897
v 0.217265 0.404707 -0.548769
v 0.226654 0.435788 -0.532589
v 0.230543 0.409586 -0.546229
v 0.226654 -0.085622 0.469031
v 0.217265 -0.083391 0.470193
v 0.217265 -0.116703 0.452851
v 0.222125 0.437452 -0.531723
v 0.230543 0.433141 -0.533967
v 0.233527 0.413036 -0.544434
v 0.230543 -0.088269 0.467653
v 0.212405 -0.116136 0.453147
v 0.217265 0.438020 -0.531428
v 0.233527 0.429692 -0.535763
v 0.233527 -0.108375 0.457187
v 0.212405 -0.083958 0.469897
v 0.212405 0.405275 -0.548474
v 0.233527 -0.091719 0.465857
v 0.235403 0.417053 -0.542342
v 0.235403 0.425675 -0.537854
v 0.207876 0.406939 -0.547607
v 0.207876 -0.085622 0.469031
v 0.212405 0.437452 -0.531723
v 0.235403 -0.095736 0.463766
v 0.235403 -0.104358 0.459278
v 0.207876 -0.114472 0.454013
v 0.236043 -0.100047 0.461522
v 0.236043 0.421364 -0.540098
v 0.203987 -0.111825 0.455391
v 0.207876 0.435788 -0.532589
v 0.203987 -0.088269 0.467653
v 0.203987 0.409586 -0.546229
v 0.201003 -0.108375 0.457187
v 0.201003 -0.091719 0.465857
v 0.203987 0.433141 -0.533967
v 0.201003 0.413036 -0.544434
v 0.199127 0.417053 -0.542342
v 0.199127 -0.095736 0.463766
v 0.201003 0.429692 -0.535763
v 0.199127 -0.104358 0.459278
v 0.199127 0.425675 -0.537854
v 0.198487 -0.100047 0.461522
v 0.198487 0.421364 -0.540098
vn 0.2588189199790258 -0.8567867351008602 -0.4460148621022613
vn 0.4464401189805487 -0.4779661273825305 -0.7564652016051895
vn 0.49999997318200207 -0.7681739587982226 -0.3998859785517162
vn 0.23109499782424062 -0.5570859947550354 -0.7976529924900971
vn 0.7071069589856762 -0.6272109636198834 -0.3265059810616741
vn 0 -0.4617488492108587 0.8870107103369427
vn 0 -0.5840730634507806 -0.8117010881791524
vn 0.4464400673687042 0.8938101348777472 -0.04236400639281378
vn 0.6313621607833397 -0.3521030896669364 -0.6909451759568119
vn 0 -0.8870107103369427 -0.4617488492108587
vn 0.23109488297797168 0.9729305073266015 -0.0011759994044963963
vn 0.6313621492196204 0.767947181500882 -0.10788402549790696
vn 0.7732577558234108 -0.1880749406103629 -0.6055578087791048
vn 0 0.8870107103369427 0.4617488492108587
vn 0.2588189199790258 0.8567867351008602 0.4460148621022613
vn 0.49999997318200207 0.7681739587982226 0.3998859785517162
vn -0.2588189199790258 -0.8567867351008602 -0.4460148621022613
vn 0 0.9999171523508886 0.012872001961223421
vn 0.773257620947274 0.6039197039571239 -0.19327090525814228
vn 0.8660255241508488 -0.44350526842587934 -0.23087413973361398
vn 0.7071069589856762 0.6272109636198834 0.3265059810616741
vn -0.23109499782424062 -0.5570859947550354 -0.7976529924900971
vn 0.8660255241508488 0.44350526842587934 0.23087413973361398
vn 0.8624569165771339 0.0029389997157193886 -0.5061219510443443
vn 0.8624569983945363 0.41290499923137736 -0.2927069994551259
vn -0.2588189199790258 0.8567867351008602 0.4460148621022613
vn -0.4464401189805487 -0.4779661273825305 -0.7564652016051895
vn -0.23109488297797168 0.9729305073266015 -0.0011759994044963963
vn 0.9659259424395087 0.22957498631939738 0.11950899287833981
vn 0.9659259424395087 -0.22957498631939738 -0.11950899287833981
vn -0.49999997318200207 -0.7681739587982226 -0.3998859785517162
vn -0.49999997318200207 0.7681739587982226 0.3998859785517162
vn 1 0 0
vn 0.8928808301428314 0.20792196044596958 -0.39941492401730916
vn -0.7071069589856762 -0.6272109636198834 -0.3265059810616741
vn -0.4464400673687042 0.8938101348777472 -0.04236400639281378
vn -0.6313621607833397 -0.3521030896669364 -0.6909451759568119
vn -0.7071069589856762 0.6272109636198834 0.3265059810616741
vn -0.8660255241508488 -0.44350526842587934 -0.23087413973361398
vn -0.6313621492196204 0.767947181500882 -0.10788402549790696
vn -0.7732577558234108 -0.1880749406103629 -0.6055578087791048
vn -0.8660255241508488 0.44350526842587934 0.23087413973361398
vn -0.8624569165771339 0.0029389997157193886 -0.5061219510443443
vn -0.773257620947274 0.6039197039571239 -0.19327090525814228
vn -0.9659259424395087 -0.22957498631939738 -0.11950899287833981
vn -0.8624569983945363 0.41290499923137736 -0.2927069994551259
vn -0.9659259424395087 0.22957498631939738 0.11950899287833981
vn -1 0 0
vn -0.8928808301428314 0.20792196044596958 -0.39941492401730916
vn -0.4464401189805487 0.4779661273825305 0.7564652016051895
vn -0.23109499782424062 0.5570859947550354 0.7976529924900971
vn 0 0.4617488492108587 -0.8870107103369427
vn 0 0.5840730634507806 0.8117010881791524
vn -0.4464400673687042 -0.8938101348777472 0.04236400639281378
vn -0.6313621607833397 0.3521030896669364 0.6909451759568119
vn -0.23109488297797168 -0.9729305073266015 0.0011759994044963963
vn -0.6313621492196204 -0.767947181500882 0.10788402549790696
vn -0.7732577558234108 0.1880749406103629 0.6055578087791048
vn 0 -0.9999171523508886 -0.012872001961223421
vn -0.773257620947274 -0.6039197039571239 0.19327090525814228
vn 0.23109499782424062 0.5570859947550354 0.7976529924900971
vn -0.8624569165771339 -0.0029389997157193886 0.5061219510443443
vn -0.8624569983945363 -0.41290499923137736 0.2927069994551259
vn 0.4464401189805487 0.4779661273825305 0.7564652016051895
vn 0.23109488297797168 -0.9729305073266015 0.0011759994044963963
vn -0.8928808301428314 -0.20792196044596958 0.39941492401730916
vn 0.4464400673687042 -0.8938101348777472 0.04236400639281378
vn 0.6313621607833397 0.3521030896669364 0.6909451759568119
vn 0.6313621492196204 -0.767947181500882 0.10788402549790696
vn 0.7732577558234108 0.1880749406103629 0.6055578087791048
vn 0.8624569165771339 -0.0029389997157193886 0.5061219510443443
vn 0.773257620947274 -0.6039197039571239 0.19327090525814228
vn 0.8624569983945363 -0.41290499923137736 0.2927069994551259
vn 0.8928808301428314 -0.20792196044596958 0.39941492401730916
usemtl material_0_0
f 1//1 2//2 3//3
f 2//2 1//1 4//4
f 2//2 5//5 3//3
f 6//6 1//6 3//6
f 1//1 7//7 4//4
f 4//4 8//8 2//2
f 5//5 2//2 9//9
f 10//6 3//6 5//6
f 11//6 1//6 6//6
f 6//6 3//6 10//6
f 7//7 1//1 12//10
f 7//7 13//11 4//4
f 4//4 13//11 8//8
f 2//2 8//8 14//12
f 2//2 14//12 9//9
f 15//13 5//5 9//9
f 10//6 5//6 16//6
f 11//6 12//6 1//6
f 13//11 11//14 6//15
f 8//8 6//15 10//16
f 17//17 7//7 12//10
f 7//7 18//18 13//11
f 6//15 8//8 13//11
f 10//16 14//12 8//8
f 9//9 14//12 19//19
f 5//5 15//13 20//20
f 9//9 19//19 15//13
f 16//6 5//6 20//6
f 14//12 10//16 16//21
f 21//6 12//6 11//6
f 11//14 13//11 18//18
f 7//7 17//17 22//22
f 21//6 17//6 12//6
f 22//22 18//18 7//7
f 14//12 23//23 19//19
f 24//24 20//20 15//13
f 15//13 19//19 25//25
f 16//6 20//6 23//6
f 23//23 14//12 16//21
f 18//18 21//26 11//14
f 17//17 26//27 22//22
f 27//6 17//6 21//6
f 22//22 28//28 18//18
f 29//29 19//19 23//23
f 20//20 24//24 30//30
f 15//13 25//25 24//24
f 19//19 29//29 25//25
f 23//6 20//6 30//6
f 21//26 18//18 28//28
f 26//27 17//17 31//31
f 26//27 28//28 22//22
f 27//6 31//6 17//6
f 28//28 27//32 21//26
f 23//6 30//6 29//6
f 24//24 32//33 30//30
f 24//24 25//25 33//34
f 32//33 25//25 29//29
f 34//35 26//27 31//31
f 26//27 35//36 28//28
f 36//6 31//6 27//6
f 27//32 28//28 35//36
f 29//6 30//6 32//6
f 32//33 24//24 33//34
f 25//25 32//33 33//34
f 26//27 34//35 37//37
f 36//6 34//6 31//6
f 37//37 35//36 26//27
f 35//36 36//38 27//32
f 38//39 37//37 34//35
f 39//6 34//6 36//6
f 37//37 40//40 35//36
f 36//38 35//36 40//40
f 37//37 38//39 41//41
f 39//6 38//6 34//6
f 40//40 39//42 36//38
f 41//41 40//40 37//37
f 38//39 42//43 41//41
f 43//6 38//6 39//6
f 39//42 40//40 44//44
f 41//41 44//44 40//40
f 42//43 38//39 45//45
f 42//43 44//44 41//41
f 43//6 45//6 38//6
f 39//42 46//46 43//47
f 46//46 39//42 44//44
f 47//48 42//43 45//45
f 42//43 46//46 44//44
f 45//6 43//6 47//6
f 48//49 43//47 46//46
f 42//43 47//48 48//49
f 46//46 42//43 48//49
f 43//47 48//49 47//48
usemtl material_1_0
f 3//32 2//50 1//26
f 4//51 1//26 2//50
f 3//32 5//38 2//50
f 3//52 1//52 6//52
f 4//51 7//53 1//26
f 2//50 8//54 4//51
f 9//55 2//50 5//38
f 5//52 3//52 10//52
f 6//52 1//52 11//52
f 10//52 3//52 6//52
f 12//14 1//26 7//53
f 4//51 13//56 7//53
f 8//54 13//56 4//51
f 14//57 8//54 2//50
f 9//55 14//57 2//50
f 9//55 5//38 15//58
f 16//52 5//52 10//52
f 1//52 12//52 11//52
f 6//17 11//10 13//56
f 10//31 6//17 8//54
f 12//14 7//53 17//15
f 13//56 18//59 7//53
f 13//56 8//54 6//17
f 8//54 14//57 10//31
f 19//60 14//57 9//55
f 20//42 15//58 5//38
f 15//58 19//60 9//55
f 20//52 5//52 16//52
f 16//35 10//31 14//57
f 11//52 12//52 21//52
f 18//59 13//56 11//10
f 22//61 17//15 7//53
f 12//52 17//52 21//52
f 7//53 18//59 22//61
f 19//60 23//39 14//57
f 15//58 20//42 24//62
f 25//63 19//60 15//58
f 23//52 20//52 16//52
f 16//35 14//57 23//39
f 11//10 21//1 18//59
f 22//61 26//64 17//15
f 21//52 17//52 27//52
f 18//59 28//65 22//61
f 23//39 19//60 29//45
f 30//47 24//62 20//42
f 24//62 25//63 15//58
f 25//63 29//45 19//60
f 30//52 20//52 23//52
f 28//65 18//59 21//1
f 31//16 17//15 26//64
f 22//61 28//65 26//64
f 17//52 31//52 27//52
f 21//1 27//3 28//65
f 29//52 30//52 23//52
f 30//47 32//48 24//62
f 33//66 25//63 24//62
f 29//45 25//63 32//48
f 31//16 26//64 34//21
f 28//65 35//67 26//64
f 27//52 31//52 36//52
f 35//67 28//65 27//3
f 32//52 30//52 29//52
f 33//66 24//62 32//48
f 33//66 32//48 25//63
f 37//68 34//21 26//64
f 31//52 34//52 36//52
f 26//64 35//67 37//68
f 27//3 36//5 35//67
f 34//21 37//68 38//23
f 36//52 34//52 39//52
f 35//67 40//69 37//68
f 40//69 35//67 36//5
f 41//70 38//23 37//68
f 34//52 38//52 39//52
f 36//5 39//20 40//69
f 37//68 40//69 41//70
f 41//70 42//71 38//23
f 39//52 38//52 43//52
f 44//72 40//69 39//20
f 40//69 44//72 41//70
f 45//29 38//23 42//71
f 41//70 44//72 42//71
f 38//52 45//52 43//52
f 43//30 46//73 39//20
f 44//72 39//20 46//73
f 45//29 42//71 47//33
f 44//72 46//73 42//71
f 47//52 43//52 45//52
f 46//73 43//30 48//74
f 48//74 47//33 42//71
f 48//74 42//71 46//73
f 47//33 48//74 43//30
