# SSTK version 0.8.0
# 50
mtllib original-50.mtl
o Group_47_1/Group_47/mesh54/mesh54-geometry#mesh54-geometry
v 0.228006 -0.188589 0.060405
v 0.206501 -0.213360 0.031781
v 0.228006 -0.213360 0.031781
v 0.206501 -0.188589 0.060405
v 0.228006 -0.211378 0.027975
v 0.206501 -0.211378 0.027975
v 0.228006 -0.203040 0.011958
v 0.206501 -0.203040 0.011958
v 0.228006 -0.201059 0.008151
v 0.206501 -0.201059 0.008151
v 0.228006 -0.173073 -0.006191
v 0.206501 -0.173073 -0.006191
vn 0 -0.7561713980954788 0.6543736063613268
vn 0 0.7561713980954788 -0.6543736063613268
vn 1 0 0
vn -1 0 0
vn 0 -0.4560855275526123 -0.8899359480080886
vn 0 0.4560855275526123 0.8899359480080886
usemtl material_0_0
f 1//1 2//1 3//1
f 2//1 1//1 4//1
f 3//2 2//2 1//2
f 4//2 1//2 2//2
f 5//3 1//3 3//3
f 3//4 1//4 5//4
f 4//4 6//4 2//4
f 2//3 6//3 4//3
f 7//3 1//3 5//3
f 5//4 1//4 7//4
f 4//4 8//4 6//4
f 6//3 8//3 4//3
f 9//3 1//3 7//3
f 7//4 1//4 9//4
f 4//4 10//4 8//4
f 8//3 10//3 4//3
f 1//3 9//3 11//3
f 11//4 9//4 1//4
f 10//4 4//4 12//4
f 12//3 4//3 10//3
f 9//5 12//5 11//5
f 11//6 12//6 9//6
f 12//5 9//5 10//5
f 10//6 9//6 12//6
