# SSTK version 0.8.0
# 57
mtllib original-57.mtl
o __3_1/__3/mesh62/mesh62-geometry#mesh62-geometry
v -0.246683 -0.186393 -0.051659
v -0.289206 -0.186393 -0.051659
v -0.246683 -0.167818 -0.044898
v -0.289206 -0.206086 -0.053382
v -0.289206 -0.167818 -0.044898
v -0.244645 -0.178576 -0.024231
v -0.246683 -0.206086 -0.053382
v -0.291244 -0.191436 -0.028911
v -0.246683 -0.151625 -0.033559
v -0.291244 -0.178576 -0.024231
v -0.244645 -0.191436 -0.028911
v -0.289206 -0.225554 -0.049949
v -0.291244 -0.205070 -0.030104
v -0.289206 -0.151625 -0.033559
v -0.244645 -0.167366 -0.016381
v -0.246683 -0.225554 -0.049949
v -0.244645 -0.205070 -0.030104
v -0.246683 -0.138918 -0.018416
v -0.291244 -0.167366 -0.016381
v -0.246683 -0.243470 -0.041595
v -0.291244 -0.218547 -0.027728
v -0.244645 -0.218547 -0.027728
v -0.289206 -0.138918 -0.018416
v -0.291244 -0.158569 -0.005897
v -0.244645 -0.158569 -0.005897
v -0.289206 -0.243470 -0.041595
v -0.246683 -0.130564 -0.000500
v -0.244645 -0.230951 -0.021944
v -0.246683 -0.258613 -0.028888
v -0.291244 -0.230951 -0.021944
v -0.289206 -0.130564 -0.000500
v -0.291244 -0.152785 0.006506
v -0.244645 -0.152785 0.006506
v -0.289206 -0.258613 -0.028888
v -0.289206 -0.127131 0.018967
v -0.246683 -0.127131 0.018967
v -0.244645 -0.241434 -0.013147
v -0.291244 -0.241434 -0.013147
v -0.246683 -0.269951 -0.012695
v -0.244645 -0.150409 0.019984
v -0.289206 -0.269951 -0.012695
v -0.291244 -0.150409 0.019984
v -0.289206 -0.128854 0.038660
v -0.246683 -0.128854 0.038660
v -0.244645 -0.249284 -0.001937
v -0.291244 -0.249284 -0.001937
v -0.246683 -0.276712 0.005881
v -0.244645 -0.151601 0.033617
v -0.289206 -0.276712 0.005881
v -0.291244 -0.253965 0.010924
v -0.291244 -0.151601 0.033617
v -0.289206 -0.135615 0.057236
v -0.246683 -0.135615 0.057236
v -0.244645 -0.253965 0.010924
v -0.246683 -0.278435 0.025573
v -0.244645 -0.156282 0.046477
v -0.244645 -0.255158 0.024557
v -0.291244 -0.255158 0.024557
v -0.289206 -0.278435 0.025573
v -0.291244 -0.156282 0.046477
v -0.289206 -0.146954 0.073429
v -0.244645 -0.164132 0.057688
v -0.244645 -0.252781 0.038035
v -0.246683 -0.275002 0.045041
v -0.246683 -0.146954 0.073429
v -0.291244 -0.252781 0.038035
v -0.289206 -0.275002 0.045041
v -0.291244 -0.164132 0.057688
v -0.289206 -0.162097 0.086135
v -0.244645 -0.174616 0.066485
v -0.244645 -0.246997 0.050438
v -0.289206 -0.266648 0.062957
v -0.291244 -0.174616 0.066485
v -0.246683 -0.162097 0.086135
v -0.291244 -0.246997 0.050438
v -0.246683 -0.266648 0.062957
v -0.291244 -0.187019 0.072268
v -0.289206 -0.180013 0.094490
v -0.244645 -0.187019 0.072268
v -0.244645 -0.238201 0.060922
v -0.289206 -0.253942 0.078100
v -0.291244 -0.238201 0.060922
v -0.246683 -0.180013 0.094490
v -0.246683 -0.253942 0.078100
v -0.291244 -0.200496 0.074645
v -0.246683 -0.199480 0.097922
v -0.244645 -0.200496 0.074645
v -0.244645 -0.226990 0.068771
v -0.289206 -0.237749 0.089438
v -0.291244 -0.226990 0.068771
v -0.289206 -0.199480 0.097922
v -0.246683 -0.237749 0.089438
v -0.291244 -0.214130 0.073452
v -0.246683 -0.219173 0.096199
v -0.244645 -0.214130 0.073452
v -0.289206 -0.219173 0.096199
vn 0 0.2164399600938712 -0.9762959303789825
vn 0 0.46174884921085835 -0.8870107103369428
vn 0 -0.04361932328377227 -0.9990482243797172
vn 0.9961946805205275 0.040244156653352826 -0.0773082554315159
vn 0.9961946916659393 0.01886358901726674 -0.08508996007750651
vn -0.9961946916659393 0.01886358901726701 -0.08508996007750762
vn -0.9961947038369325 -0.003801808973697679 -0.08707271843564751
vn 0 0.6755903384894026 -0.7372772168864125
vn -0.9961946805205274 0.04024415665335309 -0.07730825543151701
vn 0.9961946916659393 0.0588819387702406 -0.06425771224733763
vn 0 -0.3007055457822659 -0.9537170307464315
vn 0.9961947038369328 -0.0038018089736979485 -0.0870727184356464
vn -0.9961946916659393 0.05888193877024087 -0.06425771224733876
vn 0 -0.46174884921085835 0.8870107103369428
vn 0 -0.2164399600938712 0.9762959303789825
vn -0.9961947540236687 -0.026208022947781514 -0.08312130646766046
vn 0 0.04361932328377227 0.9990482243797172
vn 0 0.8433916972298907 -0.5372992137009734
vn 0 -0.6755903384894026 0.7372772168864125
vn 0.9961947038369328 0.07350644826725455 -0.04682856084036003
vn 0 -0.5372992137009731 -0.8433916972298908
vn 0.9961947540236687 -0.026208022947781785 -0.08312130646765935
vn 0 0.3007055457822659 0.9537170307464315
vn -0.9961947038369325 0.0735064482672548 -0.04682856084036114
vn 0 -0.8433916972298907 0.5372992137009734
vn 0.9961947038369328 -0.04682856084036069 -0.07350644826725415
vn -0.9961947038369325 -0.04682856084036042 -0.07350644826725525
vn 0 0.9537170307464313 -0.3007055457822664
vn 0.9961947540236687 0.08312130646765975 -0.02620802294778113
vn 0 -0.7372772168864122 -0.675590338489403
vn 0 0.5372992137009731 0.8433916972298908
vn -0.9961947540236687 0.08312130646766001 -0.026208022947782243
vn 0 -0.9537170307464313 0.3007055457822664
vn 0.9961946916659393 -0.06425771224733828 -0.05888193877024019
vn -0.9961946916659393 -0.06425771224733802 -0.058881938770241296
vn 0 0.9990482243797171 -0.0436193232837726
vn 0.9961947038369328 0.0870727184356468 -0.0038018089736972923
vn 0 0.7372772168864122 0.675590338489403
vn 0 -0.8870107103369428 -0.46174884921085857
vn -0.9961947038369325 0.08707271843564705 -0.0038018089736983974
vn 0 -0.9990482243797171 0.0436193232837726
vn 0.9961946805205275 -0.07730825543151654 -0.0402441566533524
vn -0.9961946805205274 -0.07730825543151626 -0.040244156653353506
vn 0 0.9762959303789827 0.21643996009387115
vn 0.9961946916659393 0.0850899600775069 0.018863589017267417
vn 0 0.8870107103369428 0.46174884921085857
vn 0 -0.9762959303789827 -0.21643996009387115
vn -0.9961946916659393 0.08508996007750716 0.018863589017266306
vn 0.9961946916659393 -0.08508996007750716 -0.018863589017266306
vn -0.9961946916659393 -0.0850899600775069 -0.018863589017267417
vn 0.9961946805205274 0.07730825543151626 0.040244156653353506
vn -0.9961946805205275 0.07730825543151654 0.0402441566533524
vn 0.9961947038369325 -0.08707271843564705 0.0038018089736983974
vn -0.9961947038369328 -0.0870727184356468 0.0038018089736972923
vn 0.9961946916659393 0.06425771224733802 0.058881938770241296
vn 0.9961947540236687 -0.08312130646766001 0.026208022947782243
vn -0.9961946916659393 0.06425771224733828 0.05888193877024019
vn -0.9961947540236687 -0.08312130646765975 0.02620802294778113
vn 0.9961947038369325 0.04682856084036042 0.07350644826725525
vn 0.9961947038369325 -0.0735064482672548 0.04682856084036114
vn -0.9961947038369328 0.04682856084036069 0.07350644826725415
vn -0.9961947038369328 -0.07350644826725455 0.04682856084036003
vn -0.9961947540236687 0.026208022947781785 0.08312130646765935
vn 0.9961947540236687 0.026208022947781514 0.08312130646766046
vn 0.9961946916659393 -0.05888193877024087 0.06425771224733876
vn -0.9961946916659393 -0.0588819387702406 0.06425771224733763
vn -0.9961947038369328 0.0038018089736979485 0.0870727184356464
vn 0.9961947038369325 0.003801808973697679 0.08707271843564751
vn 0.9961946805205274 -0.04024415665335309 0.07730825543151701
vn -0.9961946805205275 -0.040244156653352826 0.0773082554315159
vn -0.9961946916659393 -0.01886358901726674 0.08508996007750651
vn 0.9961946916659393 -0.01886358901726701 0.08508996007750762
usemtl material_0_0
f 1//1 2//1 3//2
f 2//1 1//1 4//3
f 5//2 3//2 2//1
f 3//4 6//4 1//5
f 7//3 4//3 1//1
f 2//6 4//7 8//6
f 3//2 5//2 9//8
f 5//9 2//6 10//9
f 3//4 9//10 6//4
f 11//5 1//5 6//4
f 4//3 7//3 12//11
f 1//5 11//5 7//12
f 13//7 8//6 4//7
f 8//6 10//9 2//6
f 14//8 9//8 5//2
f 5//9 10//9 14//13
f 15//10 6//4 9//10
f 6//14 10//14 11//15
f 16//11 12//11 7//3
f 4//7 12//16 13//7
f 17//12 7//12 11//5
f 13//17 17//17 8//15
f 8//15 11//15 10//14
f 9//8 14//8 18//18
f 19//13 14//13 10//9
f 15//19 19//19 6//14
f 9//10 18//20 15//10
f 10//14 6//14 19//19
f 16//11 20//21 12//11
f 7//12 17//12 16//22
f 21//16 13//7 12//16
f 11//15 8//15 17//17
f 17//17 13//17 22//23
f 23//18 18//18 14//8
f 14//13 19//13 23//24
f 19//19 15//19 24//25
f 25//20 15//10 18//20
f 16//22 22//22 20//26
f 26//21 12//11 20//21
f 22//22 16//22 17//12
f 21//23 22//23 13//17
f 12//16 26//27 21//16
f 18//18 23//18 27//28
f 24//24 23//24 19//13
f 25//25 24//25 15//19
f 18//20 27//29 25//20
f 28//26 20//26 22//22
f 20//21 29//30 26//21
f 21//23 30//31 22//23
f 30//27 21//16 26//27
f 31//28 27//28 23//18
f 23//24 24//24 31//32
f 24//25 25//25 32//33
f 33//29 25//20 27//29
f 20//26 28//26 29//34
f 28//31 22//23 30//31
f 34//30 26//21 29//30
f 26//27 34//35 30//27
f 31//28 35//36 27//28
f 32//32 31//32 24//24
f 33//33 32//33 25//25
f 27//29 36//37 33//29
f 37//34 29//34 28//26
f 30//31 38//38 28//31
f 29//30 39//39 34//30
f 38//35 30//27 34//35
f 31//32 32//32 35//40
f 36//36 27//28 35//36
f 33//33 40//41 32//33
f 40//37 33//29 36//37
f 29//34 37//34 39//42
f 37//38 28//31 38//38
f 41//39 34//30 39//39
f 34//35 41//43 38//35
f 42//40 35//40 32//32
f 35//36 43//44 36//36
f 42//41 32//33 40//41
f 36//37 44//45 40//37
f 45//42 39//42 37//34
f 38//38 46//46 37//38
f 39//39 47//47 41//39
f 46//43 38//35 41//43
f 35//40 42//40 43//48
f 44//44 36//36 43//44
f 40//41 48//47 42//41
f 48//45 40//37 44//45
f 39//42 45//42 47//49
f 45//46 37//38 46//46
f 49//47 41//39 47//47
f 46//43 41//43 50//50
f 51//48 43//48 42//40
f 43//44 52//46 44//44
f 51//47 42//41 48//47
f 44//45 53//51 48//45
f 54//49 47//49 45//42
f 46//46 50//44 45//46
f 49//50 50//50 41//43
f 47//47 55//41 49//47
f 43//48 51//48 52//52
f 53//46 44//44 52//46
f 48//47 56//39 51//47
f 56//51 48//45 53//51
f 54//49 57//53 47//49
f 54//44 45//46 50//44
f 50//50 49//50 58//54
f 55//53 47//49 57//53
f 59//41 49//47 55//41
f 60//52 52//52 51//48
f 52//46 61//38 53//46
f 60//39 51//47 56//39
f 56//51 53//51 62//55
f 57//36 54//44 58//36
f 50//44 58//36 54//44
f 59//54 58//54 49//50
f 57//53 63//56 55//53
f 55//41 64//33 59//41
f 52//52 60//52 61//57
f 65//38 53//46 61//38
f 56//39 62//30 60//39
f 65//55 62//55 53//51
f 58//36 66//28 57//36
f 58//54 59//54 66//58
f 63//28 57//36 66//28
f 64//56 55//53 63//56
f 67//33 59//41 64//33
f 68//57 61//57 60//52
f 61//38 69//31 65//38
f 68//30 60//39 62//30
f 62//55 65//55 70//59
f 67//58 66//58 59//54
f 63//28 66//28 71//18
f 63//56 71//60 64//56
f 67//33 64//33 72//25
f 68//57 73//61 61//57
f 69//61 61//57 73//61
f 74//31 65//38 69//31
f 62//30 70//21 68//30
f 74//59 70//59 65//55
f 66//58 67//58 75//62
f 75//18 71//18 66//28
f 76//60 64//56 71//60
f 76//25 72//25 64//33
f 72//62 75//62 67//58
f 73//21 68//30 70//21
f 73//61 77//63 69//61
f 69//31 78//23 74//31
f 70//59 74//59 79//64
f 71//18 75//18 80//8
f 71//60 80//65 76//60
f 72//25 76//25 81//19
f 75//62 72//62 82//66
f 70//21 79//11 73//21
f 77//11 73//21 79//11
f 78//63 69//61 77//63
f 83//23 74//31 78//23
f 83//64 79//64 74//59
f 82//8 80//8 75//18
f 84//65 76//60 80//65
f 84//19 81//19 76//25
f 81//66 82//66 72//62
f 77//11 79//11 85//3
f 77//63 85//67 78//63
f 83//23 78//23 86//17
f 79//64 83//64 87//68
f 80//8 82//8 88//2
f 80//65 88//69 84//65
f 81//19 84//19 89//14
f 82//66 81//66 90//70
f 87//3 85//3 79//11
f 91//67 78//63 85//67
f 91//17 86//17 78//23
f 86//68 87//68 83//64
f 90//2 88//2 82//8
f 92//69 84//65 88//69
f 92//14 89//14 84//19
f 89//70 90//70 81//66
f 85//3 87//3 93//1
f 85//67 93//71 91//67
f 86//17 91//17 94//15
f 87//68 86//68 95//72
f 88//2 90//2 95//1
f 92//69 88//69 94//72
f 89//14 92//14 96//15
f 89//70 96//71 90//70
f 95//1 93//1 87//3
f 96//71 91//67 93//71
f 96//15 94//15 91//17
f 94//72 95//72 86//68
f 93//1 95//1 90//2
f 95//72 94//72 88//69
f 94//15 96//15 92//14
f 93//71 90//70 96//71
usemtl material_1_0
f 3//14 2//15 1//15
f 4//17 1//15 2//15
f 2//15 3//14 5//14
f 1//71 6//70 3//70
f 1//15 4//17 7//17
f 8//72 4//68 2//72
f 9//19 5//14 3//14
f 10//69 2//72 5//69
f 6//70 9//66 3//70
f 6//70 1//71 11//71
f 12//23 7//17 4//17
f 7//67 11//71 1//71
f 4//68 8//72 13//68
f 2//72 10//69 8//72
f 5//14 9//19 14//19
f 14//65 10//69 5//69
f 9//66 6//70 15//66
f 11//1 10//2 6//2
f 7//17 12//23 16//23
f 13//68 12//64 4//68
f 11//71 7//67 17//67
f 8//1 17//3 13//3
f 10//2 11//1 8//1
f 18//25 14//19 9//19
f 10//69 14//65 19//65
f 6//2 19//8 15//8
f 15//66 18//62 9//66
f 19//8 6//2 10//2
f 12//23 20//31 16//23
f 16//63 17//67 7//67
f 12//64 13//68 21//64
f 17//3 8//1 11//1
f 22//11 13//3 17//3
f 14//19 18//25 23//25
f 23//60 19//65 14//65
f 24//18 15//8 19//8
f 18//62 15//66 25//62
f 20//61 22//63 16//63
f 20//31 12//23 26//31
f 17//67 16//63 22//63
f 13//3 22//11 21//11
f 21//64 26//59 12//64
f 27//33 23//25 18//25
f 19//65 23//60 24//60
f 15//8 24//18 25//18
f 25//62 27//58 18//62
f 22//63 20//61 28//61
f 26//31 29//38 20//31
f 22//11 30//21 21//11
f 26//59 21//64 30//59
f 23//25 27//33 31//33
f 31//56 24//60 23//60
f 32//28 25//18 24//18
f 27//58 25//62 33//58
f 29//57 28//61 20//61
f 30//21 22//11 28//21
f 29//38 26//31 34//38
f 30//59 34//55 26//59
f 27//33 35//41 31//33
f 24//60 31//56 32//56
f 25//18 32//28 33//28
f 33//58 36//54 27//58
f 28//61 29//57 37//57
f 28//21 38//30 30//21
f 34//38 39//46 29//38
f 34//55 30//59 38//55
f 35//53 32//56 31//56
f 35//41 27//33 36//41
f 32//28 40//36 33//28
f 36//54 33//58 40//54
f 39//52 37//57 29//57
f 38//30 28//21 37//30
f 39//46 34//38 41//46
f 38//55 41//51 34//55
f 32//56 35//53 42//53
f 36//41 43//47 35//41
f 40//36 32//28 42//36
f 40//54 44//50 36//54
f 37//57 39//52 45//52
f 37//30 46//39 38//30
f 41//46 47//44 39//46
f 41//51 38//55 46//51
f 43//49 42//53 35//53
f 43//47 36//41 44//47
f 42//36 48//44 40//36
f 44//50 40//54 48//50
f 47//48 45//52 39//52
f 46//39 37//30 45//39
f 47//44 41//46 49//44
f 50//45 41//51 46//51
f 42//53 43//49 51//49
f 44//47 52//39 43//47
f 48//44 42//36 51//44
f 48//50 53//43 44//50
f 45//52 47//48 54//48
f 45//39 50//47 46//39
f 41//51 50//45 49//45
f 49//44 55//36 47//44
f 52//42 51//49 43//49
f 52//39 44//47 53//39
f 51//44 56//46 48//44
f 53//43 48//50 56//43
f 47//48 57//40 54//48
f 50//47 45//39 54//47
f 58//37 49//45 50//45
f 57//40 47//48 55//40
f 55//36 49//44 59//36
f 51//49 52//42 60//42
f 53//39 61//30 52//39
f 56//46 51//44 60//46
f 62//35 53//43 56//43
f 58//41 54//47 57//41
f 54//47 58//41 50//47
f 49//45 58//37 59//37
f 55//40 63//32 57//40
f 59//36 64//28 55//36
f 61//34 60//42 52//42
f 61//30 53//39 65//30
f 60//46 62//38 56//46
f 53//43 62//35 65//35
f 57//41 66//33 58//41
f 66//29 59//37 58//37
f 66//33 57//41 63//33
f 63//32 55//40 64//32
f 64//28 59//36 67//28
f 60//42 61//34 68//34
f 65//30 69//21 61//30
f 62//38 60//46 68//38
f 70//27 65//35 62//35
f 59//37 66//29 67//29
f 71//25 66//33 63//33
f 64//32 71//24 63//32
f 72//18 64//28 67//28
f 61//34 73//26 68//34
f 73//26 61//34 69//26
f 69//21 65//30 74//21
f 68//38 70//31 62//38
f 65//35 70//27 74//27
f 75//20 67//29 66//29
f 66//33 71//25 75//25
f 71//24 64//32 76//24
f 64//28 72//18 76//18
f 67//29 75//20 72//20
f 70//31 68//38 73//31
f 69//26 77//22 73//26
f 74//21 78//11 69//21
f 79//16 74//27 70//27
f 80//19 75//25 71//25
f 76//24 80//13 71//24
f 81//8 76//18 72//18
f 82//10 72//20 75//20
f 73//31 79//23 70//31
f 79//23 73//31 77//23
f 77//22 69//26 78//22
f 78//11 74//21 83//11
f 74//27 79//16 83//16
f 75//25 80//19 82//19
f 80//13 76//24 84//13
f 76//18 81//8 84//8
f 72//20 82//10 81//10
f 85//17 79//23 77//23
f 78//22 85//12 77//22
f 86//3 78//11 83//11
f 87//7 83//16 79//16
f 88//14 82//19 80//19
f 84//13 88//9 80//13
f 89//2 84//8 81//8
f 90//4 81//10 82//10
f 79//23 85//17 87//17
f 85//12 78//22 91//12
f 78//11 86//3 91//3
f 83//16 87//7 86//7
f 82//19 88//14 90//14
f 88//9 84//13 92//9
f 84//8 89//2 92//2
f 81//10 90//4 89//4
f 93//15 87//17 85//17
f 91//12 93//5 85//12
f 94//1 91//3 86//3
f 95//6 86//7 87//7
f 95//15 90//14 88//14
f 94//6 88//9 92//9
f 96//1 92//2 89//2
f 90//4 96//5 89//4
f 87//17 93//15 95//15
f 93//5 91//12 96//5
f 91//3 94//1 96//1
f 86//7 95//6 94//6
f 90//14 95//15 93//15
f 88//9 94//6 95//6
f 92//2 96//1 94//1
f 96//5 90//4 93//5
