# SSTK version 0.8.0
# 28
mtllib original-28.mtl
o Group15/mesh21/mesh21-geometry#mesh21-geometry
v -0.219934 0.419004 -0.508861
v -0.219934 0.421996 -0.514609
v -0.219934 0.420879 -0.511538
v -0.219934 0.416501 -0.506761
v 0.222660 0.420879 -0.511538
v 0.222660 0.419004 -0.508861
v 0.222660 0.416501 -0.506761
v -0.219934 0.422281 -0.517865
v 0.222660 0.421996 -0.514609
v 0.222660 0.413539 -0.505379
v -0.219934 0.413539 -0.505379
v 0.222660 0.422281 -0.517865
v 0.222660 0.421714 -0.521083
v -0.219934 0.421714 -0.521083
v -0.219934 0.410321 -0.504812
v 0.222660 0.420333 -0.524045
v 0.222660 0.410321 -0.504812
v -0.219934 0.420333 -0.524045
v -0.219934 0.407065 -0.505097
v 0.222660 0.418232 -0.526548
v 0.222660 0.407065 -0.505097
v -0.219934 0.418232 -0.526548
v -0.219934 0.403994 -0.506215
v 0.222660 0.415555 -0.528423
v 0.222660 0.403994 -0.506215
v -0.219934 0.415555 -0.528423
v -0.219934 0.401317 -0.508089
v 0.222660 0.412484 -0.529541
v 0.222660 0.401317 -0.508089
v -0.219934 0.412484 -0.529541
v -0.219934 0.399216 -0.510592
v 0.222660 0.409229 -0.529825
v 0.222660 0.399216 -0.510592
v -0.219934 0.409229 -0.529825
v -0.219934 0.397835 -0.513554
v 0.222660 0.406010 -0.529258
v 0.222660 0.397835 -0.513554
v -0.219934 0.406010 -0.529258
v 0.222660 0.397268 -0.516773
v 0.222660 0.403048 -0.527877
v -0.219934 0.397268 -0.516773
v -0.219934 0.403048 -0.527877
v 0.222660 0.397553 -0.520028
v 0.222660 0.400545 -0.525776
v -0.219934 0.400545 -0.525776
v -0.219934 0.397553 -0.520028
v 0.222660 0.398670 -0.523099
v -0.219934 0.398670 -0.523099
vn 1 0 0
vn -1 0 0
vn 0 -0.9762959252079247 -0.2164399834189664
vn 0 -0.8870107103369427 -0.4617488492108587
vn 0 0.8870107103369427 0.4617488492108587
vn 0 0.9762959252079247 0.2164399834189664
vn 0 -0.7372772864953187 -0.675590262524631
vn 0 0.7372772864953187 0.675590262524631
vn 0 -0.5373000889551414 -0.8433911396314269
vn 0 0.5373000889551414 0.8433911396314269
vn 0 -0.3007059677455279 -0.9537168977019469
vn 0 0.3007059677455279 0.9537168977019469
vn 0 -0.9990482380407545 0.0436190103929938
vn 0 0.9990482380407545 -0.0436190103929938
vn 0 -0.0436190103929938 -0.9990482380407545
vn 0 0.0436190103929938 0.9990482380407545
vn 0 -0.9537168977019469 0.3007059677455279
vn 0 0.9537168977019469 -0.3007059677455279
vn 0 -0.8433911396314269 0.5373000889551414
vn 0 0.8433911396314269 -0.5373000889551414
vn 0 0.2164399834189664 -0.9762959252079247
vn 0 -0.2164399834189664 0.9762959252079247
vn 0 -0.675590262524631 0.7372772864953187
vn 0 0.675590262524631 -0.7372772864953187
vn 0 0.4617488492108587 -0.8870107103369427
vn 0 -0.4617488492108587 0.8870107103369427
usemtl material_0_0
f 1//1 2//1 3//1
f 2//1 1//1 4//1
f 3//2 2//2 1//2
f 4//2 1//2 2//2
f 2//3 5//4 3//4
f 3//5 5//5 2//6
f 3//4 6//7 1//7
f 1//8 6//8 3//5
f 1//7 7//9 4//9
f 4//10 7//10 1//8
f 2//1 4//1 8//1
f 8//2 4//2 2//2
f 5//4 2//3 9//3
f 9//6 2//6 5//5
f 6//7 3//4 5//4
f 5//5 3//5 6//8
f 7//9 1//7 6//7
f 6//8 1//8 7//10
f 10//11 4//9 7//9
f 7//10 4//10 10//12
f 8//1 4//1 11//1
f 11//2 4//2 8//2
f 8//13 9//3 2//3
f 2//6 9//6 8//14
f 9//2 6//2 5//2
f 5//1 6//1 9//1
f 6//2 12//2 7//2
f 7//1 12//1 6//1
f 4//9 10//11 11//11
f 11//12 10//12 4//10
f 7//2 13//2 10//2
f 10//1 13//1 7//1
f 8//1 11//1 14//1
f 14//2 11//2 8//2
f 9//3 8//13 12//13
f 12//14 8//14 9//6
f 6//2 9//2 12//2
f 12//1 9//1 6//1
f 7//2 12//2 13//2
f 13//1 12//1 7//1
f 10//11 15//15 11//11
f 11//12 15//16 10//12
f 10//2 13//2 16//2
f 16//1 13//1 10//1
f 14//1 11//1 15//1
f 15//2 11//2 14//2
f 14//17 12//13 8//13
f 8//14 12//14 14//18
f 12//13 14//17 13//17
f 13//18 14//18 12//14
f 15//15 10//11 17//15
f 17//16 10//12 15//16
f 14//17 16//19 13//17
f 13//18 16//20 14//18
f 10//2 16//2 17//2
f 17//1 16//1 10//1
f 14//1 15//1 18//1
f 18//2 15//2 14//2
f 17//15 19//21 15//15
f 15//16 19//22 17//16
f 16//19 14//17 18//19
f 18//20 14//18 16//20
f 17//2 16//2 20//2
f 20//1 16//1 17//1
f 18//1 15//1 19//1
f 19//2 15//2 18//2
f 19//21 17//15 21//21
f 21//22 17//16 19//22
f 18//19 20//23 16//19
f 16//20 20//24 18//20
f 17//2 20//2 21//2
f 21//1 20//1 17//1
f 18//1 19//1 22//1
f 22//2 19//2 18//2
f 21//21 23//25 19//21
f 19//22 23//26 21//22
f 20//23 18//19 22//23
f 22//24 18//20 20//24
f 21//2 20//2 24//2
f 24//1 20//1 21//1
f 22//1 19//1 23//1
f 23//2 19//2 22//2
f 23//25 21//21 25//25
f 25//26 21//22 23//26
f 22//23 24//26 20//23
f 20//24 24//25 22//24
f 21//2 24//2 25//2
f 25//1 24//1 21//1
f 22//1 23//1 26//1
f 26//2 23//2 22//2
f 25//25 27//24 23//25
f 23//26 27//23 25//26
f 24//26 22//23 26//26
f 26//25 22//24 24//25
f 25//2 24//2 28//2
f 28//1 24//1 25//1
f 26//1 23//1 27//1
f 27//2 23//2 26//2
f 27//24 25//25 29//24
f 29//23 25//26 27//23
f 26//26 28//22 24//26
f 24//25 28//21 26//25
f 25//2 28//2 29//2
f 29//1 28//1 25//1
f 26//1 27//1 30//1
f 30//2 27//2 26//2
f 29//24 31//20 27//24
f 27//23 31//19 29//23
f 28//22 26//26 30//22
f 30//21 26//25 28//21
f 29//2 28//2 32//2
f 32//1 28//1 29//1
f 30//1 27//1 31//1
f 31//2 27//2 30//2
f 31//20 29//24 33//20
f 33//19 29//23 31//19
f 30//22 32//16 28//22
f 28//21 32//15 30//21
f 29//2 32//2 33//2
f 33//1 32//1 29//1
f 30//1 31//1 34//1
f 34//2 31//2 30//2
f 33//20 35//18 31//20
f 31//19 35//17 33//19
f 32//16 30//22 34//16
f 34//15 30//21 32//15
f 33//2 32//2 36//2
f 36//1 32//1 33//1
f 34//1 31//1 35//1
f 35//2 31//2 34//2
f 35//18 33//20 37//18
f 37//17 33//19 35//17
f 34//16 36//12 32//16
f 32//15 36//11 34//15
f 33//2 36//2 37//2
f 37//1 36//1 33//1
f 34//1 35//1 38//1
f 38//2 35//2 34//2
f 39//14 35//18 37//18
f 37//17 35//17 39//13
f 36//12 34//16 38//12
f 38//11 34//15 36//11
f 37//2 36//2 40//2
f 40//1 36//1 37//1
f 38//1 35//1 41//1
f 41//2 35//2 38//2
f 35//18 39//14 41//14
f 41//13 39//13 35//17
f 37//2 40//2 39//2
f 39//1 40//1 37//1
f 42//10 36//12 38//12
f 38//11 36//11 42//9
f 36//12 42//10 40//10
f 40//9 42//9 36//11
f 38//1 41//1 42//1
f 42//2 41//2 38//2
f 43//6 41//14 39//14
f 39//13 41//13 43//3
f 39//2 40//2 44//2
f 44//1 40//1 39//1
f 45//8 40//10 42//10
f 42//9 40//9 45//7
f 42//1 41//1 46//1
f 46//2 41//2 42//2
f 41//14 43//6 46//6
f 46//3 43//3 41//13
f 39//2 44//2 43//2
f 43//1 44//1 39//1
f 40//10 45//8 44//8
f 44//7 45//7 40//9
f 42//1 46//1 45//1
f 45//2 46//2 42//2
f 47//5 46//6 43//6
f 43//3 46//3 47//4
f 43//2 44//2 47//2
f 47//1 44//1 43//1
f 48//5 44//8 45//8
f 45//7 44//7 48//4
f 45//1 46//1 48//1
f 48//2 46//2 45//2
f 46//6 47//5 48//5
f 48//4 47//4 46//3
f 44//8 48//5 47//5
f 47//4 48//4 44//7
