# SSTK version 0.8.0
# 27
mtllib original-27.mtl
o Group14/mesh20/mesh20-geometry#mesh20-geometry
v 0.180066 0.005773 0.507551
v 0.200031 -0.122024 0.440064
v 0.191761 -0.069793 0.484217
v 0.243263 -0.113238 0.440447
v 0.200966 -0.128714 0.453102
v 0.234993 -0.061007 0.484600
v 0.223298 0.014559 0.507934
v 0.244198 -0.119928 0.453485
vn -0.9799318715809167 -0.19914297390251412 -0.00869499886052917
vn -0.06365703548260061 0.45563925397453003 -0.8878854949097325
vn 0.04703301919902345 -0.3488721424106842 0.9359893820737516
vn 0.13684302558547445 -0.8759561637771013 -0.4625740864872538
vn 0.06365703548260061 -0.45563925397453003 0.8878854949097325
vn 0.9799318715809167 0.19914297390251412 0.00869499886052917
vn -0.04703301919902345 0.3488721424106842 -0.9359893820737516
vn -0.13684302558547445 0.8759561637771013 0.4625740864872538
usemtl material_0_0
f 1//1 2//1 3//1
f 2//2 1//2 4//2
f 5//1 3//1 2//1
f 3//3 6//3 1//3
f 7//2 4//2 1//2
f 2//4 4//4 5//4
f 5//5 8//5 3//5
f 6//5 3//5 8//5
f 7//3 1//3 6//3
f 4//6 7//6 8//6
f 8//4 5//4 4//4
f 6//6 8//6 7//6
usemtl material_1_0
f 3//6 2//6 1//6
f 4//5 1//5 2//5
f 2//6 3//6 5//6
f 1//7 6//7 3//7
f 1//5 4//5 7//5
f 5//8 4//8 2//8
f 3//2 8//2 5//2
f 8//2 3//2 6//2
f 6//7 1//7 7//7
f 8//1 7//1 4//1
f 4//8 5//8 8//8
f 7//1 8//1 6//1
