# SSTK version 0.8.0
# 40
mtllib original-40.mtl
o mesh32/mesh32-geometry#mesh32-geometry
v -0.200929 -0.013710 0.317932
v -0.200929 -0.028110 0.359274
v -0.200929 -0.008107 0.320848
v -0.200929 -0.033713 0.356357
v 0.004462 -0.062469 0.292549
v -0.200929 -0.037978 0.305298
v 0.004462 -0.082472 0.330975
v -0.167002 -0.068072 0.289633
v -0.200929 -0.039257 0.353471
v 0.004462 -0.068072 0.289633
v -0.200929 -0.057981 0.343724
v -0.167002 -0.088075 0.328058
v 0.004462 -0.088075 0.328058
vn -1 0 0
vn 1 0 0
vn 0.28593297951795715 0.8499776747249681 0.4424706585674578
vn -0.28593297951795715 -0.8499776747249681 -0.4424706585674578
vn 0 0.4617488492108586 -0.8870107103369427
vn 0 -0.4617488492108586 0.8870107103369427
vn -0.7071068966432492 -0.627211185853001 -0.32650568917007494
vn 0.7071068966432492 0.627211185853001 0.32650568917007494
vn 0 -0.8870107103369427 -0.4617488492108587
vn 0 0.8870107103369427 0.4617488492108587
usemtl material_0_0
f 1//1 2//1 3//1
f 2//1 1//1 4//1
f 3//2 2//2 1//2
f 4//2 1//2 2//2
f 2//3 5//3 3//3
f 3//4 5//4 2//4
f 5//5 1//5 3//5
f 3//6 1//6 5//6
f 6//1 4//1 1//1
f 1//2 4//2 6//2
f 4//6 7//6 2//6
f 2//5 7//5 4//5
f 5//3 2//3 7//3
f 7//4 2//4 5//4
f 1//5 5//5 8//5
f 8//6 5//6 1//6
f 4//1 6//1 9//1
f 9//2 6//2 4//2
f 8//5 6//5 1//5
f 1//6 6//6 8//6
f 7//6 4//6 9//6
f 9//5 4//5 7//5
f 10//1 7//1 5//1
f 5//2 7//2 10//2
f 8//5 5//5 10//5
f 10//6 5//6 8//6
f 9//1 6//1 11//1
f 11//2 6//2 9//2
f 8//7 11//7 6//7
f 6//8 11//8 8//8
f 7//6 9//6 12//6
f 12//5 9//5 7//5
f 7//1 10//1 13//1
f 13//2 10//2 7//2
f 10//9 12//9 8//9
f 8//10 12//10 10//10
f 12//6 9//6 11//6
f 11//5 9//5 12//5
f 11//7 8//7 12//7
f 12//8 8//8 11//8
f 7//6 12//6 13//6
f 13//5 12//5 7//5
f 12//9 10//9 13//9
f 13//10 10//10 12//10
