# SSTK version 0.8.0
# 65
mtllib original-65.mtl
o Group22/mesh67/mesh67-geometry#mesh67-geometry
v -0.241659 -0.199900 0.009266
v -0.241659 -0.193784 0.012450
v -0.241659 -0.196633 0.010455
v -0.241659 -0.203364 0.008963
v 0.230841 -0.196633 0.010455
v 0.230841 -0.199900 0.009266
v 0.230841 -0.203364 0.008963
v -0.241659 -0.191549 0.015114
v 0.206501 -0.196633 0.010455
v 0.230841 -0.193784 0.012450
v 0.228006 -0.196633 0.010455
v 0.230841 -0.206788 0.009567
v -0.241659 -0.206788 0.009567
v 0.230841 -0.191549 0.015114
v 0.230841 -0.190080 0.018265
v -0.241659 -0.190080 0.018265
v 0.206501 -0.198614 0.014262
v -0.241659 -0.209940 0.011036
v 0.230841 -0.198614 0.014262
v -0.241659 -0.198614 0.014262
v 0.228006 -0.198614 0.014262
v 0.230841 -0.209940 0.011036
v -0.241659 -0.200829 0.013456
v 0.230841 -0.196683 0.015614
v 0.230841 -0.200829 0.013456
v -0.241659 -0.196683 0.015614
v 0.206501 -0.206952 0.030279
v 0.230841 -0.189476 0.021689
v -0.241659 -0.212604 0.013272
v -0.241659 -0.203177 0.013250
v -0.241659 -0.189476 0.021689
v 0.228006 -0.206952 0.030279
v 0.230841 -0.203177 0.013250
v 0.230841 -0.212604 0.013272
v -0.241659 -0.205498 0.013660
v 0.230841 -0.195168 0.017419
v -0.241659 -0.195168 0.017419
v -0.241659 -0.206952 0.030279
v 0.230841 -0.206952 0.030279
v 0.206501 -0.208934 0.034085
v 0.230841 -0.189779 0.025153
v 0.230841 -0.205498 0.013660
v -0.241659 -0.214598 0.016120
v -0.241659 -0.207634 0.014656
v 0.230841 -0.194172 0.019555
v -0.241659 -0.194172 0.019555
v 0.230841 -0.208883 0.028927
v 0.228006 -0.208934 0.034085
v -0.241659 -0.189779 0.025153
v 0.230841 -0.207634 0.014656
v 0.230841 -0.214598 0.016120
v -0.241659 -0.209440 0.016171
v -0.241659 -0.208883 0.028927
v -0.241659 -0.204737 0.031085
v 0.230841 -0.215486 0.026276
v 0.230841 -0.208934 0.034085
v -0.241659 -0.208934 0.034085
v 0.230841 -0.190968 0.028421
v 0.230841 -0.193763 0.021876
v 0.230841 -0.209440 0.016171
v -0.241659 -0.215787 0.019387
v -0.241659 -0.210792 0.018101
v -0.241659 -0.193763 0.021876
v 0.230841 -0.210398 0.027121
v -0.241659 -0.215486 0.026276
v -0.241659 -0.198778 0.034974
v 0.230841 -0.204737 0.031085
v 0.230841 -0.198778 0.034974
v -0.241659 -0.211782 0.032091
v -0.241659 -0.190968 0.028421
v 0.230841 -0.193969 0.024224
v 0.230841 -0.210792 0.018101
v 0.230841 -0.215787 0.019387
v -0.241659 -0.193969 0.024224
v -0.241659 -0.210398 0.027121
v -0.241659 -0.202389 0.031290
v 0.230841 -0.216090 0.022851
v 0.230841 -0.202202 0.035577
v 0.230841 -0.205666 0.035274
v 0.230841 -0.211782 0.032091
v -0.241659 -0.205666 0.035274
v 0.230841 -0.192963 0.031269
v 0.230841 -0.194775 0.026439
v 0.230841 -0.211598 0.020316
v -0.241659 -0.216090 0.022851
v -0.241659 -0.211598 0.020316
v 0.230841 -0.211394 0.024985
v -0.241659 -0.214017 0.029427
v -0.241659 -0.195626 0.033504
v 0.230841 -0.202389 0.031290
v -0.241659 -0.202202 0.035577
v 0.230841 -0.214017 0.029427
v -0.241659 -0.194775 0.026439
v -0.241659 -0.192963 0.031269
v 0.230841 -0.211803 0.022664
v -0.241659 -0.211803 0.022664
v -0.241659 -0.211394 0.024985
v -0.241659 -0.200068 0.030881
v 0.230841 -0.195626 0.033504
v -0.241659 -0.196127 0.028370
v 0.230841 -0.196127 0.028370
v -0.241659 -0.197932 0.029885
v 0.230841 -0.200068 0.030881
v 0.230841 -0.197932 0.029885
vn -1 0 0
vn 1 0 0
vn 0 0.012872001961223421 -0.9999171523508886
vn 0 -0.8870107103369427 -0.4617488492108587
vn 0 -0.5735761643640092 0.8191522347362981
vn 0 -0.342019894888923 0.9396927112094517
vn 0 -0.087155971832894 0.996194678049358
vn 0 -0.7660440678408657 0.6427880569253128
vn 0 0.5735761643640092 -0.8191522347362981
vn 0 0.342019894888923 -0.9396927112094517
vn 0 0.17364796311995492 0.9848077908426045
vn 0 0.42261796517881683 0.906307925325668
vn 0 -0.906307925325668 0.42261796517881683
vn 0 0.6427880569253128 0.7660440678408657
vn 0 -0.9848077908426045 0.17364796311995492
vn 0 0.7660440678408657 -0.6427880569253128
vn 0 0.8191522347362981 0.5735761643640092
vn 0 0.087155971832894 -0.996194678049358
vn 0 -0.996194678049358 -0.087155971832894
vn 0 0.9396927112094517 0.342019894888923
vn 0 0.906307925325668 -0.42261796517881683
vn 0 -0.9396927112094517 -0.342019894888923
vn 0 -0.17364796311995492 -0.9848077908426045
vn 0 -0.8191522347362981 -0.5735761643640092
vn 0 0.996194678049358 0.087155971832894
vn 0 0.9848077908426045 -0.17364796311995492
vn 0 -0.42261796517881683 -0.906307925325668
vn 0 -0.6427880569253128 -0.7660440678408657
vn 0 -0.675590262524631 0.7372772864953187
vn 0 -0.4617488492108587 0.8870107103369427
vn 0 -0.2164399834189664 0.9762959252079247
vn 0 0.0436190103929938 0.9990482380407545
vn 0 -0.012872001961223421 0.9999171523508886
vn 0 0.3007059677455279 0.9537168977019469
vn 0 -0.8433911396314269 0.5373000889551414
vn 0 0.8870107103369427 0.4617488492108587
vn 0 0.5373000889551414 0.8433911396314269
vn 0 -0.9537168977019469 0.3007059677455279
vn 0 -0.9990482380407545 0.0436190103929938
vn 0 0.7372772864953187 0.675590262524631
vn 0 -0.9762959252079247 -0.2164399834189664
vn 0 0.4617488492108587 -0.8870107103369427
vn 0 0.9762959252079247 0.2164399834189664
vn 0 0.675590262524631 -0.7372772864953187
vn 0 0.2164399834189664 -0.9762959252079247
vn 0 -0.7372772864953187 -0.675590262524631
vn 0 0.9990482380407545 -0.0436190103929938
vn 0 0.9537168977019469 -0.3007059677455279
vn 0 -0.0436190103929938 -0.9990482380407545
vn 0 -0.3007059677455279 -0.9537168977019469
vn 0 0.8433911396314269 -0.5373000889551414
vn 0 -0.5373000889551414 -0.8433911396314269
usemtl material_0_0
f 1//1 2//1 3//1
f 2//1 1//1 4//1
f 2//1 4//1 8//1
f 8//1 4//1 13//1
f 10//2 6//2 5//2
f 6//2 14//2 7//2
f 7//2 15//2 12//2
f 8//1 13//1 16//1
f 11//3 17//4 9//3
f 6//2 10//2 14//2
f 7//2 14//2 15//2
f 12//2 15//2 19//2
f 16//1 13//1 20//1
f 17//4 11//3 21//4
f 23//1 13//1 18//1
f 19//2 15//2 24//2
f 25//2 12//2 19//2
f 20//1 13//1 23//1
f 26//1 16//1 20//1
f 19//5 17//5 21//5
f 20//6 21//6 17//6
f 21//4 27//4 17//4
f 12//2 25//2 22//2
f 23//1 18//1 30//1
f 24//2 15//2 28//2
f 20//5 19//5 24//5
f 19//6 23//6 25//6
f 21//6 20//6 23//6
f 16//1 26//1 31//1
f 20//5 24//5 26//5
f 17//5 19//5 20//5
f 23//6 19//6 21//6
f 27//4 21//4 32//4
f 22//2 25//2 33//2
f 35//1 18//1 29//1
f 30//1 18//1 35//1
f 30//7 25//7 23//7
f 24//2 28//2 36//2
f 31//1 26//1 37//1
f 36//8 26//8 24//8
f 32//9 38//9 27//9
f 27//10 39//10 32//10
f 32//4 40//4 27//4
f 25//7 30//7 33//7
f 22//2 33//2 42//2
f 22//2 42//2 34//2
f 35//1 29//1 44//1
f 35//11 33//11 30//11
f 36//2 28//2 45//2
f 26//8 36//8 37//8
f 31//1 37//1 46//1
f 47//9 38//9 32//9
f 39//10 27//10 38//10
f 39//9 47//9 32//9
f 40//4 32//4 48//4
f 45//2 28//2 41//2
f 33//11 35//11 42//11
f 34//2 42//2 50//2
f 52//1 29//1 43//1
f 44//1 29//1 52//1
f 50//12 35//12 44//12
f 45//13 37//13 36//13
f 37//13 45//13 46//13
f 31//1 46//1 49//1
f 38//9 47//9 53//9
f 39//10 38//10 54//10
f 55//2 47//2 39//2
f 45//2 41//2 59//2
f 35//12 50//12 42//12
f 34//2 50//2 60//2
f 34//2 60//2 51//2
f 52//1 43//1 62//1
f 60//14 44//14 52//14
f 44//14 60//14 50//14
f 45//15 63//15 46//15
f 49//1 46//1 63//1
f 64//16 53//16 47//16
f 53//1 65//1 38//1
f 66//1 54//1 38//1
f 39//10 54//10 67//10
f 55//2 64//2 47//2
f 55//2 39//2 68//2
f 71//2 41//2 58//2
f 59//2 41//2 71//2
f 63//15 45//15 59//15
f 51//2 60//2 72//2
f 62//1 43//1 61//1
f 72//17 52//17 62//17
f 52//17 72//17 60//17
f 49//1 63//1 74//1
f 53//16 64//16 75//16
f 75//1 65//1 53//1
f 66//1 38//1 65//1
f 66//1 76//1 54//1
f 76//18 67//18 54//18
f 67//2 68//2 39//2
f 77//2 64//2 55//2
f 55//2 68//2 78//2
f 81//1 69//1 57//1
f 49//1 74//1 70//1
f 71//2 58//2 83//2
f 74//19 59//19 71//19
f 59//19 74//19 63//19
f 51//2 72//2 84//2
f 51//2 84//2 73//2
f 62//1 61//1 86//1
f 62//20 84//20 72//20
f 87//21 75//21 64//21
f 75//1 85//1 65//1
f 66//1 65//1 88//1
f 89//1 76//1 66//1
f 67//18 76//18 90//18
f 90//2 68//2 67//2
f 77//2 87//2 64//2
f 55//2 78//2 92//2
f 80//2 79//2 56//2
f 91//1 69//1 81//1
f 70//1 74//1 93//1
f 83//2 58//2 82//2
f 93//22 71//22 83//22
f 71//22 93//22 74//22
f 73//2 84//2 95//2
f 96//1 61//1 85//1
f 86//1 61//1 96//1
f 84//20 62//20 86//20
f 75//21 87//21 97//21
f 97//1 85//1 75//1
f 66//1 88//1 91//1
f 89//1 98//1 76//1
f 98//23 90//23 76//23
f 90//2 99//2 68//2
f 77//2 95//2 87//2
f 92//2 78//2 79//2
f 92//2 79//2 80//2
f 91//1 88//1 69//1
f 70//1 93//1 100//1
f 70//1 100//1 94//1
f 83//2 82//2 101//2
f 83//24 100//24 93//24
f 86//25 95//25 84//25
f 73//2 95//2 77//2
f 96//1 85//1 97//1
f 95//25 86//25 96//25
f 87//26 96//26 97//26
f 89//1 102//1 98//1
f 90//23 98//23 103//23
f 103//2 99//2 90//2
f 96//26 87//26 95//26
f 94//1 100//1 102//1
f 104//2 82//2 99//2
f 101//2 82//2 104//2
f 100//24 83//24 101//24
f 94//1 102//1 89//1
f 104//27 98//27 102//27
f 98//27 104//27 103//27
f 104//2 99//2 103//2
f 101//28 102//28 100//28
f 102//28 101//28 104//28
usemtl material_1_0
f 3//2 2//2 1//2
f 4//2 1//2 2//2
f 2//29 3//30 5//30
f 1//31 6//31 3//30
f 4//32 7//32 1//31
f 8//2 4//2 2//2
f 3//30 9//33 5//30
f 10//29 2//29 5//30
f 11//33 3//30 6//31
f 6//31 1//31 7//32
f 7//32 4//32 12//34
f 13//2 4//2 8//2
f 2//29 10//29 8//35
f 11//33 5//30 9//33
f 9//33 3//30 11//33
f 5//1 6//1 10//1
f 11//33 6//31 5//30
f 7//1 14//1 6//1
f 13//34 12//34 4//32
f 12//1 15//1 7//1
f 16//2 13//2 8//2
f 14//35 8//35 10//29
f 9//33 17//36 11//33
f 14//1 10//1 6//1
f 15//1 14//1 7//1
f 13//34 18//37 12//34
f 19//1 15//1 12//1
f 20//2 13//2 16//2
f 8//35 14//35 16//38
f 21//36 11//33 17//36
f 15//38 16//38 14//35
f 22//37 12//34 18//37
f 18//2 13//2 23//2
f 24//1 15//1 19//1
f 19//1 12//1 25//1
f 23//2 13//2 20//2
f 20//2 16//2 26//2
f 21//9 17//9 19//9
f 17//10 21//10 20//10
f 17//36 27//36 21//36
f 15//38 28//39 16//38
f 22//1 25//1 12//1
f 18//37 29//40 22//37
f 30//2 18//2 23//2
f 28//1 15//1 24//1
f 24//9 19//9 20//9
f 25//10 23//10 19//10
f 23//10 20//10 21//10
f 31//2 26//2 16//2
f 26//9 24//9 20//9
f 20//9 19//9 17//9
f 21//10 19//10 23//10
f 32//36 21//36 27//36
f 31//39 16//38 28//39
f 33//1 25//1 22//1
f 34//40 22//37 29//40
f 29//2 18//2 35//2
f 35//2 18//2 30//2
f 23//18 25//18 30//18
f 36//1 28//1 24//1
f 37//2 26//2 31//2
f 24//16 26//16 36//16
f 27//5 38//5 32//5
f 32//6 39//6 27//6
f 27//36 40//36 32//36
f 28//39 41//41 31//39
f 33//18 30//18 25//18
f 42//1 33//1 22//1
f 34//1 42//1 22//1
f 29//40 43//36 34//40
f 44//2 29//2 35//2
f 30//23 33//23 35//23
f 45//1 28//1 36//1
f 37//16 36//16 26//16
f 46//2 37//2 31//2
f 32//5 38//5 47//5
f 38//6 27//6 39//6
f 32//5 47//5 39//5
f 48//36 32//36 40//36
f 49//41 31//39 41//41
f 41//1 28//1 45//1
f 42//23 35//23 33//23
f 50//1 42//1 34//1
f 51//36 34//40 43//36
f 43//2 29//2 52//2
f 52//2 29//2 44//2
f 44//27 35//27 50//27
f 36//21 37//21 45//21
f 46//21 45//21 37//21
f 49//2 46//2 31//2
f 53//5 47//5 38//5
f 54//6 38//6 39//6
f 39//1 47//1 55//1
f 48//42 40//42 56//42
f 40//42 48//42 57//42
f 41//41 58//4 49//41
f 59//1 41//1 45//1
f 42//27 50//27 35//27
f 60//1 50//1 34//1
f 51//1 60//1 34//1
f 43//36 61//43 51//36
f 62//2 43//2 52//2
f 52//28 44//28 60//28
f 50//28 60//28 44//28
f 46//26 63//26 45//26
f 63//2 46//2 49//2
f 47//8 53//8 64//8
f 38//2 65//2 53//2
f 38//2 54//2 66//2
f 67//6 54//6 39//6
f 47//1 64//1 55//1
f 68//1 39//1 55//1
f 57//42 56//42 40//42
f 48//42 56//42 69//44
f 69//44 57//42 48//42
f 70//4 49//41 58//4
f 58//1 41//1 71//1
f 71//1 41//1 59//1
f 59//26 45//26 63//26
f 72//1 60//1 51//1
f 73//43 51//36 61//43
f 61//2 43//2 62//2
f 62//24 52//24 72//24
f 60//24 72//24 52//24
f 74//2 63//2 49//2
f 75//8 64//8 53//8
f 53//2 65//2 75//2
f 65//2 38//2 66//2
f 54//2 76//2 66//2
f 54//7 67//7 76//7
f 39//1 68//1 67//1
f 55//1 64//1 77//1
f 78//1 68//1 55//1
f 79//45 56//42 57//42
f 80//44 69//44 56//42
f 57//2 69//2 81//2
f 70//2 74//2 49//2
f 58//4 82//46 70//4
f 83//1 58//1 71//1
f 71//25 59//25 74//25
f 63//25 74//25 59//25
f 84//1 72//1 51//1
f 73//1 84//1 51//1
f 61//43 85//47 73//43
f 86//2 61//2 62//2
f 72//22 84//22 62//22
f 64//13 75//13 87//13
f 65//2 85//2 75//2
f 88//2 65//2 66//2
f 66//2 76//2 89//2
f 90//7 76//7 67//7
f 67//1 68//1 90//1
f 64//1 87//1 77//1
f 55//48 77//47 65//48
f 78//49 91//49 68//50
f 92//1 78//1 55//1
f 56//1 79//1 80//1
f 81//45 79//45 57//42
f 69//44 80//44 88//51
f 81//2 69//2 91//2
f 93//2 74//2 70//2
f 94//46 70//4 82//46
f 82//1 58//1 83//1
f 83//20 71//20 93//20
f 74//20 93//20 71//20
f 95//1 84//1 73//1
f 77//47 73//43 85//47
f 85//2 61//2 96//2
f 96//2 61//2 86//2
f 86//22 62//22 84//22
f 97//13 87//13 75//13
f 75//2 85//2 97//2
f 85//47 65//48 77//47
f 88//51 92//51 65//48
f 91//2 88//2 66//2
f 76//2 98//2 89//2
f 66//50 89//52 68//50
f 76//11 90//11 98//11
f 68//1 99//1 90//1
f 87//1 95//1 77//1
f 55//48 65//48 92//51
f 66//50 68//50 91//49
f 91//49 78//49 81//45
f 79//1 78//1 92//1
f 80//1 79//1 92//1
f 79//45 81//45 78//49
f 92//51 88//51 80//44
f 69//2 88//2 91//2
f 100//2 93//2 70//2
f 94//2 100//2 70//2
f 82//46 99//52 94//46
f 101//1 82//1 83//1
f 93//17 100//17 83//17
f 84//19 95//19 86//19
f 77//1 95//1 73//1
f 97//2 85//2 96//2
f 96//19 86//19 95//19
f 97//15 96//15 87//15
f 98//2 102//2 89//2
f 99//52 68//50 89//52
f 103//11 98//11 90//11
f 90//1 99//1 103//1
f 95//15 87//15 96//15
f 102//2 100//2 94//2
f 89//52 94//46 99//52
f 99//1 82//1 104//1
f 104//1 82//1 101//1
f 101//17 83//17 100//17
f 89//2 102//2 94//2
f 102//12 98//12 104//12
f 103//12 104//12 98//12
f 103//1 99//1 104//1
f 100//14 102//14 101//14
f 104//14 101//14 102//14
usemtl material_2_0
f 5//42 3//42 2//44
f 3//42 6//45 1//45
f 1//45 7//49 4//49
f 5//42 9//3 3//42
f 5//42 2//44 10//44
f 6//45 3//42 11//3
f 7//49 1//45 6//45
f 12//50 4//49 7//49
f 8//51 10//44 2//44
f 9//3 5//42 11//3
f 11//3 3//42 9//3
f 5//42 6//45 11//3
f 4//49 12//50 13//50
f 10//44 8//51 14//51
f 12//50 18//52 13//50
f 16//48 14//51 8//51
f 14//51 16//48 15//48
f 18//52 12//50 22//52
f 16//48 28//47 15//48
f 22//52 29//46 18//52
f 28//47 16//48 31//47
f 29//46 22//52 34//46
f 31//47 41//43 28//47
f 34//46 43//4 29//46
f 41//43 31//47 49//43
f 43//4 34//46 51//4
f 56//30 40//30 48//30
f 57//30 48//30 40//30
f 49//43 58//36 41//43
f 51//4 61//41 43//4
f 40//30 56//30 57//30
f 69//29 56//30 48//30
f 48//30 57//30 69//29
f 58//36 49//43 70//36
f 61//41 51//4 73//41
f 57//30 56//30 79//31
f 56//30 69//29 80//29
f 70//36 82//40 58//36
f 73//41 85//39 61//41
f 65//38 77//39 55//38
f 68//34 91//32 78//32
f 57//30 79//31 81//31
f 88//35 80//29 69//29
f 82//40 70//36 94//40
f 85//39 73//41 77//39
f 77//39 65//38 85//39
f 65//38 92//35 88//35
f 68//34 89//37 66//34
f 92//35 65//38 55//38
f 91//32 68//34 66//34
f 81//31 78//32 91//32
f 78//32 81//31 79//31
f 80//29 88//35 92//35
f 94//40 99//37 82//40
f 89//37 68//34 99//37
f 99//37 94//40 89//37
