# SSTK version 0.8.0
# 9
mtllib original-9.mtl
o mesh5/mesh5-geometry#mesh5-geometry
v -0.197363 -0.173740 0.291110
v -0.218782 -0.167565 0.295434
v -0.218782 -0.173740 0.291110
v -0.197363 -0.167565 0.295434
v -0.218782 -0.147981 0.241629
v -0.197363 -0.178585 0.285336
v -0.197363 -0.147981 0.241629
v -0.218782 -0.139827 0.309874
v -0.218782 -0.140898 0.244207
v -0.218782 -0.178585 0.285336
v -0.197363 -0.155491 0.240972
v -0.197363 -0.140898 0.244207
v -0.197363 -0.139827 0.309874
v -0.218782 -0.155491 0.240972
v -0.218782 -0.181771 0.278504
v -0.197363 -0.162915 0.242281
v -0.197363 -0.113160 0.258647
v -0.218782 -0.113160 0.258647
v -0.197363 -0.181771 0.278504
v -0.218782 -0.162915 0.242281
v -0.218782 -0.183080 0.271080
v -0.197363 -0.169747 0.245466
v -0.197363 -0.183080 0.271080
v -0.218782 -0.169747 0.245466
v -0.218782 -0.182423 0.263571
v -0.197363 -0.175521 0.250312
v -0.218782 -0.175521 0.250312
v -0.197363 -0.182423 0.263571
v -0.218782 -0.179845 0.256487
v -0.197363 -0.179845 0.256487
vn 0 -0.675590338489403 0.7372772168864122
vn 0 -0.5735764833416985 0.8191520113857808
vn 0 0.675590338489403 -0.7372772168864122
vn 0 0.5735764833416985 -0.8191520113857808
vn -1 0 0
vn 1 0 0
vn 0 -0.8433916972298909 0.5372992137009731
vn 0 0.8433916972298909 -0.5372992137009731
vn 0 -0.4617488492108586 0.8870107103369427
vn 0 0.4617488492108586 -0.8870107103369427
vn 0 0.3420205894022379 -0.9396924584271951
vn 0 0.21643996009387137 -0.9762959303789828
vn 0 -0.21643996009387137 0.9762959303789828
vn 0 -0.3420205894022379 0.9396924584271951
vn 0 -0.9537170307464314 0.3007055457822658
vn 0 0.9537170307464314 -0.3007055457822658
vn 0 -0.043619323283772264 -0.9990482243797173
vn 0 0.043619323283772264 0.9990482243797173
vn 0 0.8870107103369427 0.4617488492108587
vn 0 -0.8870107103369427 -0.4617488492108587
vn 0 -0.3007055457822658 -0.9537170307464313
vn 0 0.3007055457822658 0.9537170307464313
vn 0 -0.9990482243797173 0.04361932328377221
vn 0 0.9990482243797173 -0.04361932328377221
vn 0 -0.5372992137009731 -0.8433916972298909
vn 0 0.5372992137009731 0.8433916972298909
vn 0 -0.9762959303789828 -0.21643996009387143
vn 0 0.9762959303789828 0.21643996009387143
vn 0 -0.7372772168864122 -0.675590338489403
vn 0 0.7372772168864122 0.675590338489403
usemtl material_0_0
f 1//1 2//2 3//1
f 2//2 1//1 4//2
f 3//3 2//4 1//3
f 4//4 1//3 2//4
f 2//5 5//5 3//5
f 3//6 5//6 2//6
f 3//1 6//7 1//1
f 1//3 6//8 3//3
f 7//6 4//6 1//6
f 1//5 4//5 7//5
f 4//9 8//9 2//9
f 2//10 8//10 4//10
f 2//5 9//5 5//5
f 5//6 9//6 2//6
f 3//5 5//5 10//5
f 10//6 5//6 3//6
f 6//7 3//1 10//7
f 10//8 3//3 6//8
f 11//6 1//6 6//6
f 6//5 1//5 11//5
f 12//6 4//6 7//6
f 7//5 4//5 12//5
f 7//6 1//6 11//6
f 11//5 1//5 7//5
f 8//9 4//9 13//9
f 13//10 4//10 8//10
f 8//5 9//5 2//5
f 2//6 9//6 8//6
f 9//11 7//12 5//12
f 5//13 7//13 9//14
f 10//5 5//5 14//5
f 14//6 5//6 10//6
f 15//15 6//7 10//7
f 10//8 6//8 15//16
f 11//6 6//6 16//6
f 16//5 6//5 11//5
f 12//6 13//6 4//6
f 4//5 13//5 12//5
f 7//12 9//11 12//11
f 12//14 9//14 7//13
f 14//17 7//12 11//17
f 11//18 7//13 14//18
f 17//19 8//19 13//19
f 13//20 8//20 17//20
f 9//5 8//5 18//5
f 18//6 8//6 9//6
f 7//12 14//17 5//12
f 5//13 14//18 7//13
f 10//5 14//5 15//5
f 15//6 14//6 10//6
f 6//7 15//15 19//15
f 19//16 15//16 6//8
f 16//6 6//6 19//6
f 19//5 6//5 16//5
f 20//21 11//17 16//21
f 16//22 11//18 20//22
f 13//6 12//6 17//6
f 17//5 12//5 13//5
f 18//10 12//10 9//10
f 9//9 12//9 18//9
f 11//17 20//21 14//17
f 14//18 20//22 11//18
f 8//19 17//19 18//19
f 18//20 17//20 8//20
f 15//5 14//5 20//5
f 20//6 14//6 15//6
f 21//23 19//15 15//15
f 15//16 19//16 21//24
f 16//6 19//6 22//6
f 22//5 19//5 16//5
f 22//25 20//21 16//21
f 16//22 20//22 22//26
f 12//10 18//10 17//10
f 17//9 18//9 12//9
f 15//5 20//5 21//5
f 21//6 20//6 15//6
f 19//15 21//23 23//23
f 23//24 21//24 19//16
f 22//6 19//6 23//6
f 23//5 19//5 22//5
f 20//21 22//25 24//25
f 24//26 22//26 20//22
f 21//5 20//5 24//5
f 24//6 20//6 21//6
f 25//27 23//23 21//23
f 21//24 23//24 25//28
f 22//6 23//6 26//6
f 26//5 23//5 22//5
f 26//29 24//25 22//25
f 22//26 24//26 26//30
f 21//5 24//5 27//5
f 27//6 24//6 21//6
f 23//23 25//27 28//27
f 28//28 25//28 23//24
f 21//5 27//5 25//5
f 25//6 27//6 21//6
f 26//6 23//6 28//6
f 28//5 23//5 26//5
f 24//25 26//29 27//29
f 27//30 26//30 24//26
f 29//20 28//27 25//27
f 25//28 28//28 29//19
f 25//5 27//5 29//5
f 29//6 27//6 25//6
f 26//6 28//6 30//6
f 30//5 28//5 26//5
f 30//20 27//29 26//29
f 26//30 27//30 30//19
f 28//27 29//20 30//20
f 30//19 29//19 28//28
f 27//29 30//20 29//20
f 29//19 30//19 27//30
