# SSTK version 0.8.0
# 23
mtllib original-23.mtl
o Group12/mesh12/mesh12-geometry#mesh12-geometry
v 0.312729 -0.160888 0.299057
v 0.312729 -0.145468 0.275061
v 0.312729 -0.153241 0.299726
v 0.312729 -0.146996 0.277244
v 0.312729 -0.134656 0.248665
v 0.315706 -0.160888 0.299057
v 0.312729 -0.149038 0.278957
v 0.315706 -0.146996 0.277244
v 0.312729 -0.129721 0.254546
v 0.312729 -0.144556 0.272556
v 0.315706 -0.153241 0.299726
v 0.315706 -0.168102 0.296432
v 0.312729 -0.151453 0.280083
v 0.315706 -0.149038 0.278957
v 0.315706 -0.145468 0.275061
v 0.312729 -0.126477 0.261504
v 0.315706 -0.129721 0.254546
v 0.312729 -0.144324 0.269901
v 0.312729 -0.145680 0.298393
v 0.312729 -0.168102 0.296432
v 0.315706 -0.151453 0.280083
v 0.315706 -0.126477 0.261504
v 0.315706 -0.134656 0.248665
v 0.315706 -0.144556 0.272556
v 0.312729 -0.144786 0.267277
v 0.315706 -0.145680 0.298393
v 0.315706 -0.174391 0.292028
v 0.315706 -0.154078 0.280546
v 0.312729 -0.154078 0.280546
v 0.312729 -0.138723 0.295149
v 0.312729 -0.125144 0.269064
v 0.312729 -0.140944 0.244262
v 0.315706 -0.144324 0.269901
v 0.315706 -0.138723 0.295149
v 0.312729 -0.174391 0.292028
v 0.315706 -0.161421 0.277874
v 0.315706 -0.156733 0.280314
v 0.312729 -0.156733 0.280314
v 0.315706 -0.125144 0.269064
v 0.315706 -0.140944 0.244262
v 0.315706 -0.144786 0.267277
v 0.312729 -0.145913 0.264861
v 0.312729 -0.161421 0.277874
v 0.315706 -0.179325 0.286147
v 0.315706 -0.159237 0.279402
v 0.315706 -0.163134 0.275832
v 0.312729 -0.159237 0.279402
v 0.312729 -0.125813 0.276712
v 0.315706 -0.132842 0.290214
v 0.312729 -0.148158 0.241636
v 0.315706 -0.145913 0.264861
v 0.312729 -0.147626 0.262820
v 0.312729 -0.163134 0.275832
v 0.312729 -0.179325 0.286147
v 0.315706 -0.164723 0.270792
v 0.315706 -0.164260 0.273417
v 0.312729 -0.132842 0.290214
v 0.315706 -0.125813 0.276712
v 0.315706 -0.148158 0.241636
v 0.312729 -0.152314 0.260379
v 0.315706 -0.147626 0.262820
v 0.312729 -0.149809 0.261291
v 0.312729 -0.164260 0.273417
v 0.312729 -0.164723 0.270792
v 0.315706 -0.182570 0.279190
v 0.315706 -0.164490 0.268137
v 0.312729 -0.128438 0.283926
v 0.315706 -0.128438 0.283926
v 0.315706 -0.152314 0.260379
v 0.312729 -0.155806 0.240967
v 0.312729 -0.154969 0.260147
v 0.315706 -0.149809 0.261291
v 0.312729 -0.164490 0.268137
v 0.312729 -0.182570 0.279190
v 0.315706 -0.163366 0.242300
v 0.315706 -0.163579 0.265633
v 0.315706 -0.154969 0.260147
v 0.315706 -0.155806 0.240967
v 0.312729 -0.160009 0.261736
v 0.312729 -0.157593 0.260610
v 0.312729 -0.163579 0.265633
v 0.312729 -0.163366 0.242300
v 0.312729 -0.183903 0.271629
v 0.315706 -0.183903 0.271629
v 0.315706 -0.157593 0.260610
v 0.315706 -0.160009 0.261736
v 0.312729 -0.162050 0.263449
v 0.315706 -0.170324 0.245545
v 0.315706 -0.162050 0.263449
v 0.312729 -0.170324 0.245545
v 0.312729 -0.183234 0.263982
v 0.315706 -0.176205 0.250479
v 0.312729 -0.176205 0.250479
v 0.315706 -0.183234 0.263982
v 0.312729 -0.180608 0.256768
v 0.315706 -0.180608 0.256768
vn 1 -2.593836889784709e-7 -7.273310928760177e-7
vn -1 2.593836889784709e-7 7.273310928760177e-7
vn 7.478628691827855e-7 -0.20114870930668574 0.9795607162109428
vn 8.026630718340324e-7 0.0703466286001549 0.9975226071843923
vn -7.478628691827855e-7 0.20114870930668574 -0.9795607162109428
vn -8.026630718340324e-7 -0.0703466286001549 -0.9975226071843923
vn -4.991242916450247e-7 -0.8870107132402784 -0.4617488436333368
vn -6.393263014802096e-7 -0.7472165172418627 -0.664580677089345
vn 6.393263014802096e-7 0.7472165172418627 0.664580677089345
vn 4.991242916450247e-7 0.8870107132402784 0.4617488436333368
vn 6.354570049665017e-7 -0.46174874599450655 0.8870107640677742
vn -6.354570049665017e-7 0.46174874599450655 -0.8870107640677742
vn -7.419203006438907e-7 -0.5590179640029039 -0.8291555438646583
vn 7.419203006438907e-7 0.5590179640029039 0.8291555438646583
vn -2.80576065861915e-7 0.8574720364464162 -0.5145305692690738
vn -4.7445272997563067e-7 0.6870352328376418 -0.7266241042241183
vn 2.80576065861915e-7 -0.8574720364464162 0.5145305692690738
vn 4.7445272997563067e-7 -0.6870352328376418 0.7266241042241183
vn -3.2863382790737744e-7 -0.9729782904636841 -0.23089661384753676
vn 3.2863382790737744e-7 0.9729782904636841 0.23089661384753676
vn 7.989643338074824e-7 0.3295935312136812 0.9441229285328567
vn -7.989643338074824e-7 -0.3295935312136812 -0.9441229285328567
vn -7.193931126320881e-8 0.9624274230375998 -0.2715390494665545
vn 7.193931126320881e-8 -0.9624274230375998 0.2715390494665545
vn -1.3525719710483997e-7 -0.9998439987294068 0.01766290476597544
vn 1.3525719710483997e-7 0.9998439987294068 -0.01766290476597544
usemtl material_0_0
f 1//1 2//1 3//1
f 2//1 1//1 4//1
f 3//2 2//2 1//2
f 4//2 1//2 2//2
f 5//1 3//1 2//1
f 2//2 3//2 5//2
f 6//3 3//4 1//3
f 1//5 3//6 6//5
f 4//1 1//1 7//1
f 7//2 1//2 4//2
f 2//7 8//8 4//8
f 4//9 8//9 2//10
f 9//1 3//1 5//1
f 5//2 3//2 9//2
f 5//1 2//1 10//1
f 10//2 2//2 5//2
f 3//4 6//3 11//4
f 11//6 6//5 3//6
f 1//3 12//11 6//3
f 6//5 12//12 1//5
f 7//1 1//1 13//1
f 13//2 1//2 7//2
f 4//8 14//13 7//13
f 7//14 14//14 4//9
f 8//8 2//7 15//7
f 15//10 2//10 8//9
f 14//13 4//8 8//8
f 8//9 4//9 14//14
f 16//1 3//1 9//1
f 9//2 3//2 16//2
f 17//15 5//16 9//15
f 9//17 5//18 17//17
f 10//19 15//7 2//7
f 2//10 15//10 10//20
f 5//1 10//1 18//1
f 18//2 10//2 5//2
f 6//1 15//1 11//1
f 11//2 15//2 6//2
f 11//4 19//21 3//4
f 3//6 19//22 11//6
f 12//11 1//3 20//11
f 20//12 1//5 12//12
f 21//1 6//1 12//1
f 12//2 6//2 21//2
f 13//1 1//1 20//1
f 20//2 1//2 13//2
f 7//13 21//22 13//22
f 13//21 21//21 7//14
f 21//22 7//13 14//13
f 14//14 7//14 21//21
f 15//1 6//1 8//1
f 8//2 6//2 15//2
f 8//1 6//1 14//1
f 14//2 6//2 8//2
f 16//1 19//1 3//1
f 3//2 19//2 16//2
f 22//23 9//15 16//23
f 16//24 9//17 22//24
f 5//16 17//15 23//16
f 23//18 17//17 5//18
f 9//15 22//23 17//15
f 17//17 22//24 9//17
f 15//7 10//19 24//19
f 24//20 10//20 15//10
f 18//25 24//19 10//19
f 10//20 24//20 18//26
f 5//1 18//1 25//1
f 25//2 18//2 5//2
f 23//1 11//1 15//1
f 15//2 11//2 23//2
f 19//21 11//4 26//21
f 26//22 11//6 19//22
f 20//11 27//18 12//11
f 12//12 27//16 20//12
f 14//1 6//1 21//1
f 21//2 6//2 14//2
f 21//1 12//1 28//1
f 28//2 12//2 21//2
f 13//1 20//1 29//1
f 29//2 20//2 13//2
f 21//22 29//6 13//22
f 13//21 29//4 21//21
f 16//1 30//1 19//1
f 19//2 30//2 16//2
f 31//26 22//23 16//23
f 16//24 22//24 31//25
f 17//1 11//1 23//1
f 23//2 11//2 17//2
f 23//16 32//12 5//16
f 5//18 32//11 23//18
f 22//1 11//1 17//1
f 17//2 11//2 22//2
f 23//1 15//1 24//1
f 24//2 15//2 23//2
f 24//19 18//25 33//25
f 33//26 18//26 24//20
f 25//24 33//25 18//25
f 18//26 33//26 25//23
f 5//1 25//1 32//1
f 32//2 25//2 5//2
f 22//1 26//1 11//1
f 11//2 26//2 22//2
f 34//14 19//21 26//21
f 26//22 19//22 34//13
f 27//18 20//11 35//18
f 35//16 20//12 27//16
f 36//1 12//1 27//1
f 27//2 12//2 36//2
f 28//1 12//1 37//1
f 37//2 12//2 28//2
f 29//6 21//22 28//6
f 28//4 21//21 29//4
f 29//1 20//1 38//1
f 38//2 20//2 29//2
f 31//1 30//1 16//1
f 16//2 30//2 31//2
f 19//21 34//14 30//14
f 30//13 34//13 19//22
f 22//23 31//26 39//26
f 39//25 31//25 22//24
f 32//12 23//16 40//12
f 40//11 23//18 32//11
f 23//1 24//1 33//1
f 33//2 24//2 23//2
f 33//25 25//24 41//24
f 41//23 25//23 33//26
f 32//1 25//1 42//1
f 42//2 25//2 32//2
f 22//1 34//1 26//1
f 26//2 34//2 22//2
f 43//1 20//1 35//1
f 35//2 20//2 43//2
f 35//18 44//17 27//18
f 27//16 44//15 35//16
f 45//1 12//1 36//1
f 36//2 12//2 45//2
f 36//1 27//1 46//1
f 46//2 27//2 36//2
f 37//1 12//1 45//1
f 45//2 12//2 37//2
f 38//5 28//6 37//5
f 37//3 28//4 38//3
f 28//6 38//5 29//6
f 29//4 38//3 28//4
f 38//1 20//1 47//1
f 47//2 20//2 38//2
f 48//1 30//1 31//1
f 31//2 30//2 48//2
f 49//9 30//14 34//14
f 34//13 30//13 49//8
f 48//20 39//26 31//26
f 31//25 39//25 48//19
f 39//1 34//1 22//1
f 22//2 34//2 39//2
f 23//1 41//1 40//1
f 40//2 41//2 23//2
f 40//12 50//5 32//12
f 32//11 50//3 40//11
f 23//1 33//1 41//1
f 41//2 33//2 23//2
f 25//24 51//17 41//24
f 41//23 51//15 25//23
f 51//17 25//24 42//17
f 42//15 25//23 51//15
f 32//1 42//1 52//1
f 52//2 42//2 32//2
f 47//1 20//1 43//1
f 43//2 20//2 47//2
f 43//1 35//1 53//1
f 53//2 35//2 43//2
f 44//17 35//18 54//17
f 54//15 35//16 44//15
f 55//1 27//1 44//1
f 44//2 27//2 55//2
f 43//16 45//12 36//16
f 36//18 45//11 43//18
f 46//1 27//1 56//1
f 56//2 27//2 46//2
f 53//15 36//16 46//15
f 46//17 36//18 53//17
f 47//12 37//5 45//12
f 45//11 37//3 47//11
f 37//5 47//12 38//5
f 38//3 47//11 37//3
f 48//1 57//1 30//1
f 30//2 57//2 48//2
f 30//14 49//9 57//9
f 57//8 49//8 30//13
f 58//1 49//1 34//1
f 34//2 49//2 58//2
f 39//26 48//20 58//20
f 58//19 48//19 39//25
f 58//1 34//1 39//1
f 39//2 34//2 58//2
f 40//1 41//1 51//1
f 51//2 41//2 40//2
f 50//5 40//12 59//5
f 59//3 40//11 50//3
f 32//1 60//1 50//1
f 50//2 60//2 32//2
f 42//17 61//18 51//17
f 51//15 61//16 42//15
f 61//18 42//17 52//18
f 52//16 42//15 61//16
f 32//1 52//1 62//1
f 62//2 52//2 32//2
f 45//12 43//16 47//12
f 47//11 43//18 45//11
f 53//1 35//1 63//1
f 63//2 35//2 53//2
f 36//16 53//15 43//16
f 43//18 53//17 36//18
f 64//1 35//1 54//1
f 54//2 35//2 64//2
f 54//17 65//24 44//17
f 44//15 65//23 54//15
f 56//1 27//1 55//1
f 55//2 27//2 56//2
f 55//1 44//1 66//1
f 66//2 44//2 55//2
f 63//23 46//15 56//23
f 56//24 46//17 63//24
f 46//15 63//23 53//15
f 53//17 63//24 46//17
f 57//1 48//1 67//1
f 67//2 48//2 57//2
f 68//10 57//9 49//9
f 49//8 57//8 68//7
f 49//1 58//1 68//1
f 68//2 58//2 49//2
f 67//10 58//20 48//20
f 48//19 58//19 67//7
f 40//1 51//1 61//1
f 61//2 51//2 40//2
f 40//1 69//1 59//1
f 59//2 69//2 40//2
f 59//5 70//6 50//5
f 50//3 70//4 59//3
f 32//1 62//1 60//1
f 60//2 62//2 32//2
f 50//1 60//1 71//1
f 71//2 60//2 50//2
f 52//18 72//11 61//18
f 61//16 72//12 52//16
f 72//11 52//18 62//11
f 62//12 52//16 72//12
f 63//1 35//1 64//1
f 64//2 35//2 63//2
f 64//1 54//1 73//1
f 73//2 54//2 64//2
f 65//24 54//17 74//24
f 74//23 54//15 65//23
f 75//1 44//1 65//1
f 65//2 44//2 75//2
f 55//26 63//23 56//23
f 56//24 63//24 55//25
f 66//1 44//1 76//1
f 76//2 44//2 66//2
f 66//20 64//26 55//26
f 55//25 64//25 66//19
f 57//9 68//10 67//10
f 67//7 68//7 57//8
f 58//20 67//10 68//10
f 68//7 67//7 58//19
f 40//1 61//1 72//1
f 72//2 61//2 40//2
f 40//1 72//1 69//1
f 69//2 72//2 40//2
f 59//1 69//1 77//1
f 77//2 69//2 59//2
f 70//6 59//5 78//6
f 78//4 59//3 70//4
f 50//1 79//1 70//1
f 70//2 79//2 50//2
f 69//3 62//11 60//3
f 60//5 62//12 69//5
f 77//4 60//3 71//4
f 71//6 60//5 77//6
f 50//1 71//1 80//1
f 80//2 71//2 50//2
f 62//11 69//3 72//11
f 72//12 69//5 62//12
f 63//23 55//26 64//26
f 64//25 55//25 63//24
f 73//1 54//1 81//1
f 81//2 54//2 73//2
f 64//26 66//20 73//20
f 73//19 66//19 64//25
f 82//1 54//1 74//1
f 74//2 54//2 82//2
f 83//25 65//24 74//24
f 74//23 65//23 83//26
f 78//1 44//1 75//1
f 75//2 44//2 78//2
f 75//1 65//1 84//1
f 84//2 65//2 75//2
f 76//1 44//1 78//1
f 78//2 44//2 76//2
f 76//10 73//20 66//20
f 66//19 73//19 76//7
f 60//3 77//4 69//3
f 69//5 77//6 60//5
f 59//1 77//1 85//1
f 85//2 77//2 59//2
f 59//1 86//1 78//1
f 78//2 86//2 59//2
f 78//6 82//22 70//6
f 70//4 82//21 78//4
f 50//1 80//1 79//1
f 79//2 80//2 50//2
f 70//1 79//1 87//1
f 87//2 79//2 70//2
f 71//4 85//21 77//4
f 77//6 85//22 71//6
f 85//21 71//4 80//21
f 80//22 71//6 85//22
f 81//1 54//1 70//1
f 70//2 54//2 81//2
f 73//20 76//10 81//10
f 81//7 76//7 73//19
f 70//1 54//1 82//1
f 82//2 54//2 70//2
f 82//1 74//1 83//1
f 83//2 74//2 82//2
f 65//24 83//25 84//25
f 84//26 83//26 65//23
f 82//22 78//6 75//22
f 75//21 78//4 82//21
f 75//1 84//1 88//1
f 88//2 84//2 75//2
f 78//1 89//1 76//1
f 76//2 89//2 78//2
f 59//1 85//1 86//1
f 86//2 85//2 59//2
f 78//1 86//1 89//1
f 89//2 86//2 78//2
f 79//14 85//21 80//21
f 80//22 85//22 79//13
f 87//9 86//14 79//14
f 79//13 86//13 87//8
f 70//1 87//1 81//1
f 81//2 87//2 70//2
f 89//9 81//10 76//10
f 76//7 81//7 89//8
f 82//1 83//1 90//1
f 90//2 83//2 82//2
f 91//19 84//25 83//25
f 83//26 84//26 91//20
f 88//13 82//22 75//22
f 75//21 82//21 88//14
f 88//1 84//1 92//1
f 92//2 84//2 88//2
f 85//21 79//14 86//14
f 86//13 79//13 85//22
f 86//14 87//9 89//9
f 89//8 87//8 86//13
f 81//10 89//9 87//9
f 87//8 89//8 81//7
f 90//1 83//1 93//1
f 93//2 83//2 90//2
f 82//22 88//13 90//13
f 90//14 88//14 82//21
f 84//25 91//19 94//19
f 94//20 91//20 84//26
f 93//1 83//1 91//1
f 91//2 83//2 93//2
f 92//1 84//1 94//1
f 94//2 84//2 92//2
f 92//8 90//13 88//13
f 88//14 90//14 92//9
f 90//13 92//8 93//8
f 93//9 92//9 90//14
f 95//7 94//19 91//19
f 91//20 94//20 95//10
f 93//1 91//1 95//1
f 95//2 91//2 93//2
f 92//1 94//1 96//1
f 96//2 94//2 92//2
f 96//7 93//8 92//8
f 92//9 93//9 96//10
f 94//19 95//7 96//7
f 96//10 95//10 94//20
f 93//8 96//7 95//7
f 95//10 96//10 93//9
